<!-- Generated by IcoMoon.io -->
<svg version="1.1" xmlns="http://www.w3.org/2000/svg" width="28" height="32" viewBox="0 0 28 32">
<path fill="#160a58" d="M13.9 31.925c-1.571 0-3.019-1.703-4.074-4.794-1.019-2.985-1.581-6.949-1.581-11.16s0.562-8.175 1.581-11.161c1.055-3.090 2.503-4.794 4.074-4.794 1.573 0 3.017 1.704 4.074 4.794 1.019 2.987 1.581 6.95 1.581 11.161s-0.562 8.175-1.581 11.16c-1.056 3.091-2.503 4.794-4.074 4.794zM13.9 0.648c-1.262 0-2.53 1.591-3.477 4.366-0.997 2.922-1.547 6.813-1.547 10.957 0 4.145 0.55 8.035 1.547 10.957 0.946 2.775 2.215 4.367 3.477 4.367s2.53-1.591 3.477-4.367c0.997-2.922 1.546-6.813 1.546-10.957 0-4.142-0.548-8.035-1.546-10.957-0.948-2.774-2.215-4.366-3.477-4.366z"></path>
<path fill="#160a58" d="M25.029 27.003c-1.054 0-2.345-0.246-3.839-0.741-3.153-1.043-6.871-3.067-10.472-5.699s-6.655-5.562-8.604-8.25c-2.017-2.781-2.618-5.013-1.688-6.284 0.929-1.271 3.238-1.376 6.5-0.296 3.155 1.044 6.871 3.069 10.472 5.7s6.656 5.562 8.606 8.249c2.019 2.782 2.62 5.013 1.691 6.285-0.508 0.69-1.419 1.035-2.667 1.035zM3.076 5.621c-1.026 0-1.766 0.261-2.145 0.781-0.743 1.016-0.126 3.036 1.691 5.542 1.913 2.636 4.921 5.516 8.469 8.11 3.547 2.593 7.204 4.586 10.296 5.61 2.938 0.973 5.050 0.946 5.793-0.069 0.745-1.015 0.126-3.036-1.691-5.542-1.913-2.636-4.921-5.516-8.469-8.11-3.547-2.595-7.203-4.587-10.296-5.61-1.431-0.476-2.669-0.712-3.647-0.712h-0.001z"></path>
<path fill="#160a58" d="M3.309 27.262c-1.086 0-1.898-0.301-2.383-0.905-0.988-1.227-0.466-3.505 1.468-6.413 1.87-2.81 4.847-5.925 8.383-8.769 3.538-2.845 7.218-5.086 10.362-6.308 3.255-1.266 5.591-1.288 6.579-0.063 0.987 1.224 0.465 3.504-1.469 6.411-1.868 2.81-4.845 5.926-8.383 8.769-3.536 2.844-7.216 5.087-10.362 6.309-1.655 0.645-3.071 0.968-4.195 0.968zM11.173 11.667c-3.489 2.805-6.419 5.87-8.254 8.628-1.743 2.621-2.29 4.687-1.503 5.667 0.789 0.981 2.925 0.89 5.859-0.251 3.086-1.199 6.707-3.407 10.195-6.215s6.419-5.87 8.254-8.628c1.743-2.621 2.29-4.687 1.501-5.668-0.789-0.98-2.923-0.887-5.858 0.253-3.087 1.199-6.707 3.407-10.195 6.215z"></path>
<path fill="#160a58" d="M13.795 18.027c-0.153 0-0.306-0.016-0.457-0.046s-0.297-0.074-0.44-0.133c-0.142-0.059-0.277-0.132-0.405-0.216-0.128-0.086-0.246-0.183-0.355-0.292s-0.207-0.227-0.292-0.355c-0.086-0.128-0.157-0.263-0.216-0.406-0.059-0.141-0.103-0.288-0.133-0.44-0.031-0.151-0.046-0.302-0.046-0.457 0-0.153 0.015-0.305 0.046-0.457 0.030-0.151 0.074-0.297 0.133-0.44 0.059-0.141 0.13-0.277 0.216-0.405 0.085-0.128 0.183-0.246 0.292-0.355s0.227-0.206 0.355-0.292c0.128-0.086 0.262-0.157 0.405-0.216s0.289-0.104 0.44-0.133c0.151-0.031 0.304-0.046 0.457-0.046 0.155 0 0.306 0.015 0.457 0.046 0.152 0.030 0.298 0.074 0.44 0.133 0.142 0.059 0.277 0.13 0.406 0.216 0.128 0.086 0.246 0.183 0.355 0.292s0.206 0.227 0.292 0.355c0.085 0.128 0.157 0.263 0.216 0.405 0.058 0.142 0.103 0.289 0.133 0.44 0.030 0.152 0.044 0.304 0.044 0.457 0 0.155-0.015 0.306-0.046 0.457-0.030 0.152-0.074 0.297-0.133 0.44s-0.132 0.277-0.216 0.405c-0.086 0.128-0.183 0.246-0.292 0.355s-0.227 0.206-0.355 0.292c-0.128 0.086-0.262 0.157-0.405 0.216s-0.289 0.104-0.44 0.134c-0.151 0.030-0.302 0.044-0.457 0.046zM13.795 14.097c-0.103 0-0.207 0.011-0.309 0.031s-0.202 0.051-0.297 0.090c-0.097 0.040-0.188 0.089-0.274 0.146-0.087 0.058-0.167 0.124-0.241 0.198s-0.14 0.153-0.198 0.241c-0.058 0.086-0.106 0.177-0.147 0.274-0.040 0.095-0.070 0.195-0.090 0.297s-0.031 0.206-0.031 0.309c0 0.105 0.011 0.208 0.031 0.31s0.050 0.2 0.090 0.297c0.040 0.097 0.089 0.188 0.147 0.274s0.124 0.167 0.198 0.241c0.074 0.074 0.153 0.138 0.241 0.196 0.086 0.059 0.177 0.108 0.274 0.148 0.095 0.039 0.195 0.070 0.297 0.090s0.206 0.030 0.309 0.030c0.105 0 0.207-0.009 0.309-0.030s0.202-0.051 0.298-0.090c0.095-0.040 0.187-0.089 0.274-0.148 0.086-0.058 0.167-0.122 0.241-0.196 0.073-0.074 0.138-0.155 0.196-0.241s0.108-0.177 0.146-0.274c0.040-0.097 0.070-0.195 0.090-0.297 0.021-0.102 0.031-0.206 0.031-0.31 0-0.103-0.011-0.207-0.031-0.309s-0.050-0.2-0.090-0.297c-0.040-0.095-0.089-0.187-0.146-0.274-0.058-0.086-0.124-0.167-0.198-0.241-0.074-0.073-0.153-0.138-0.241-0.196-0.086-0.058-0.177-0.107-0.273-0.146-0.097-0.040-0.196-0.070-0.298-0.091-0.102-0.020-0.204-0.030-0.309-0.031z"></path>
</svg>
