<svg width="110" height="124" viewBox="0 0 110 124" fill="none" xmlns="http://www.w3.org/2000/svg">
<mask id="mask0_1794_11881" style="mask-type:luminance" maskUnits="userSpaceOnUse" x="30" y="0" width="47" height="124">
<path d="M30.7173 0H76.0506V123.938H30.7173V0Z" fill="white"/>
</mask>
<g mask="url(#mask0_1794_11881)">
<path d="M53.8631 123.708C47.7746 123.708 42.1652 117.109 38.0767 105.13C34.1287 93.5623 31.9517 78.203 31.9517 61.8853C31.9517 45.5675 34.1287 30.2082 38.0767 18.6353C42.1652 6.6613 47.7746 0.0571289 53.8631 0.0571289C59.9569 0.0571289 65.5558 6.6613 69.6496 18.6353C73.5975 30.2082 75.7746 45.5675 75.7746 61.8853C75.7746 78.203 73.5975 93.5623 69.6496 105.13C65.5558 117.109 59.9517 123.708 53.8631 123.708ZM53.8631 2.51025C48.9725 2.51025 44.061 8.67692 40.3892 19.4269C36.5246 30.7498 34.3944 45.828 34.3944 61.8853C34.3944 77.9478 36.5246 93.0207 40.3892 104.344C44.0558 115.099 48.9725 121.265 53.8631 121.265C58.7537 121.265 63.6652 115.099 67.3371 104.344C71.2017 93.0207 73.3267 77.9426 73.3267 61.8853C73.3267 45.8332 71.2017 30.7498 67.3371 19.4269C63.6652 8.67692 58.7537 2.51025 53.8631 2.51025Z" fill="#160A58"/>
</g>
<path d="M96.9882 104.636C92.9049 104.636 87.8997 103.682 82.1133 101.766C69.8945 97.7242 55.4882 89.8804 41.5351 79.6825C27.582 69.4846 15.7487 58.1304 8.19658 47.7137C0.37887 36.9377 -1.94926 28.2867 1.65491 23.3648C5.25387 18.4377 14.2018 18.0314 26.8424 22.2189C39.0664 26.2658 53.4674 34.1096 67.4205 44.3075C81.3737 54.5054 93.2122 65.8596 100.769 76.271C108.592 87.0523 110.921 95.6981 107.322 100.625C105.353 103.297 101.822 104.636 96.9882 104.636ZM11.9205 21.7814C7.94658 21.7814 5.07679 22.7919 3.60804 24.8075C0.727826 28.745 3.11845 36.5731 10.1601 46.2814C17.5716 56.495 29.2278 67.6564 42.9778 77.7085C56.7226 87.7554 70.8945 95.4794 82.8737 99.4481C94.2591 103.219 102.441 103.115 105.322 99.1825C108.207 95.2502 105.811 87.4169 98.7695 77.7085C91.358 67.495 79.7018 56.3335 65.9518 46.2814C52.207 36.2242 38.0403 28.5054 26.056 24.5419C20.5091 22.6981 15.7122 21.7814 11.9257 21.7814H11.9205Z" fill="#160A58"/>
<path d="M12.8217 105.641C8.61334 105.641 5.46751 104.474 3.5873 102.135C-0.240826 97.3803 1.78001 88.5522 9.2748 77.2865C16.5196 66.3959 28.0561 54.3282 41.7592 43.3074C55.4675 32.2813 69.7279 23.599 81.9102 18.8647C94.5248 13.9584 103.577 13.8751 107.405 18.6199C111.228 23.3647 109.207 32.198 101.712 43.4636C94.4727 54.3542 82.9363 66.4272 69.2279 77.4428C55.5248 88.4636 41.2644 97.1563 29.0769 101.891C22.6654 104.391 17.1758 105.641 12.8217 105.641ZM43.2956 45.2084C29.7748 56.0782 18.4206 67.9532 11.3113 78.6407C4.55605 88.797 2.43626 96.8022 5.48834 100.599C8.54563 104.401 16.8217 104.047 28.1915 99.6251C40.1498 94.9792 54.1811 86.422 67.6967 75.5417C81.2123 64.6615 92.5717 52.7969 99.6811 42.1094C106.436 31.9532 108.556 23.948 105.499 20.1459C102.441 16.349 94.1706 16.7084 82.8008 21.1251C70.8373 25.7709 56.8113 34.3282 43.2956 45.2084Z" fill="#160A58"/>
<path d="M53.457 69.8543C52.8633 69.8543 52.2695 69.7918 51.6862 69.6772C51.1029 69.5627 50.5352 69.3908 49.9831 69.1616C49.431 68.9325 48.9102 68.6512 48.4154 68.3231C47.9206 67.9897 47.4622 67.6147 47.0404 67.1929C46.6185 66.771 46.2383 66.3127 45.9102 65.8179C45.5768 65.3231 45.3008 64.797 45.0716 64.245C44.8424 63.6981 44.6706 63.1304 44.556 62.5418C44.4362 61.9585 44.3789 61.37 44.3789 60.771C44.3789 60.1772 44.4362 59.5887 44.556 59.0002C44.6706 58.4168 44.8424 57.8491 45.0716 57.297C45.3008 56.7502 45.5768 56.2241 45.9102 55.7293C46.2383 55.2345 46.6185 54.7762 47.0404 54.3543C47.4622 53.9325 47.9206 53.5575 48.4154 53.2241C48.9102 52.8908 49.431 52.6147 49.9831 52.3856C50.5352 52.1564 51.1029 51.9845 51.6862 51.87C52.2695 51.7502 52.8633 51.6929 53.457 51.6929C54.056 51.6929 54.6445 51.7502 55.2279 51.87C55.8164 51.9845 56.3841 52.1564 56.931 52.3856C57.4831 52.6147 58.0039 52.8908 58.5039 53.2241C58.9987 53.5575 59.457 53.9325 59.8789 54.3543C60.3008 54.7762 60.6758 55.2345 61.0091 55.7293C61.3372 56.2241 61.6185 56.7502 61.8477 57.297C62.0716 57.8491 62.2487 58.4168 62.3633 59.0002C62.4779 59.5887 62.5352 60.1772 62.5352 60.771C62.5352 61.37 62.4779 61.9585 62.3581 62.5418C62.2435 63.1304 62.0716 63.6929 61.8424 64.245C61.6133 64.797 61.332 65.3179 61.0039 65.8127C60.6706 66.3075 60.2956 66.7658 59.8737 67.1877C59.4518 67.6095 58.9935 67.9845 58.4987 68.3179C58.0039 68.6512 57.4831 68.9272 56.931 69.1564C56.3789 69.3856 55.8112 69.5575 55.2279 69.6772C54.6445 69.7918 54.056 69.8491 53.457 69.8543ZM53.457 54.6252C53.056 54.6252 52.6549 54.6668 52.2591 54.745C51.8633 54.8231 51.4779 54.9429 51.1081 55.0939C50.7331 55.2502 50.3789 55.4377 50.0456 55.6616C49.707 55.8856 49.3997 56.1408 49.1133 56.4272C48.8268 56.7137 48.5716 57.021 48.3477 57.3595C48.1237 57.6929 47.9362 58.047 47.7799 58.422C47.6237 58.7918 47.5091 59.1772 47.431 59.5731C47.3529 59.9689 47.3112 60.37 47.3112 60.771C47.3112 61.1772 47.3529 61.5783 47.431 61.9741C47.5091 62.37 47.6237 62.7502 47.7799 63.1252C47.9362 63.5002 48.1237 63.8543 48.3477 64.1877C48.5716 64.521 48.8268 64.8335 49.1133 65.12C49.3997 65.4064 49.707 65.6564 50.0456 65.8804C50.3789 66.1095 50.7331 66.297 51.1081 66.4533C51.4779 66.6043 51.8633 66.7241 52.2591 66.8022C52.6549 66.8804 53.056 66.9168 53.457 66.9168C53.8633 66.9168 54.2591 66.8804 54.6549 66.8022C55.0508 66.7241 55.4362 66.6043 55.8112 66.4533C56.181 66.297 56.5352 66.1095 56.8737 65.8804C57.207 65.6564 57.5195 65.4064 57.806 65.12C58.0872 64.8335 58.3424 64.521 58.5664 64.1877C58.7904 63.8543 58.9831 63.5002 59.1341 63.1252C59.2904 62.7502 59.4049 62.37 59.4831 61.9741C59.5664 61.5783 59.6029 61.1772 59.6029 60.771C59.6029 60.37 59.5612 59.9689 59.4831 59.5731C59.4049 59.1772 59.2904 58.797 59.1341 58.422C58.9779 58.0522 58.7904 57.6981 58.5664 57.3595C58.3424 57.0262 58.0872 56.7137 57.8008 56.4272C57.5143 56.146 57.207 55.8908 56.8685 55.6668C56.5352 55.4429 56.181 55.2502 55.8112 55.0991C55.4362 54.9429 55.0508 54.8283 54.6549 54.745C54.2591 54.6668 53.8633 54.6304 53.457 54.6252Z" fill="#160A58"/>
</svg>
