<!-- Generated by IcoMoon.io -->
<svg version="1.1" xmlns="http://www.w3.org/2000/svg" width="36" height="32" viewBox="0 0 36 32">
<path fill="#160a58" d="M4.652 31.938h25.938c2.866 0 4.652-2.057 4.652-4.652 0-0.775-0.202-1.568-0.623-2.292l-12.994-22.635c-0.877-1.534-2.41-2.359-3.995-2.359-1.568 0-3.118 0.826-4.012 2.359l-12.994 22.652c-0.407 0.689-0.622 1.475-0.623 2.275 0 2.596 1.804 4.652 4.652 4.652zM4.686 29.292c-1.18 0-1.956-0.961-1.956-2.006 0-0.303 0.051-0.657 0.22-1.011l12.977-22.635c0.371-0.64 1.046-0.943 1.703-0.943s1.297 0.286 1.668 0.943l12.978 22.652c0.168 0.338 0.252 0.691 0.252 0.995 0 1.045-0.809 2.006-1.972 2.006l-25.87-0.001zM17.629 20.579c0.809 0 1.28-0.472 1.297-1.348l0.236-8.882c0.017-0.86-0.657-1.5-1.55-1.5-0.91 0-1.55 0.623-1.534 1.483l0.219 8.899c0.017 0.86 0.489 1.348 1.332 1.348zM17.629 26.056c0.977 0 1.819-0.775 1.819-1.752 0-0.995-0.826-1.753-1.819-1.753s-1.821 0.775-1.821 1.753c0 0.961 0.843 1.752 1.821 1.752z"></path>
</svg>
