<!-- Generated by IcoMoon.io -->
<svg version="1.1" xmlns="http://www.w3.org/2000/svg" width="39" height="32" viewBox="0 0 39 32">
<path fill="#160a58" d="M1.554 18.101l0.020 0.003c2.039 0.271 4.032 0.534 6.751 0.244 2.749-0.291 6.244-1.15 9.786-2.020 0.029-0.007 0.059-0.012 0.088-0.013 2.512-0.157 5.125-0.323 6.857-0.015 0.434 0.077 0.837 0.189 1.178 0.348 1.035 0.483 1.492 1.433 1.018 2.446-0.316 0.68-1.022 1.305-2.034 1.808-1.421 0.705-3.581 1.229-5.389 1.67-1.199 0.293-2.234 0.547-2.884 0.793-0.535 0.204-0.683 0.359-0.702 0.394 0.008-0.017 0.019-0.067 0.003-0.109-0.002-0.003-0.003-0.005-0.003-0.005 0.054 0.098 0.402 0.337 1.204 0.584 0.301 0.094 0.633 0.178 0.995 0.244 1.374 0.244 3.214 0.19 5.453-0.963 1.416-0.729 2.992-1.894 4.603-3.086 1.569-1.162 3.173-2.352 4.62-3.096 0.057-0.030 0.116-0.059 0.174-0.088 1.523-0.753 2.914-1.012 3.877-0.84 0.786 0.14 1.505 0.653 1.342 1.574-0.020 0.111-0.052 0.222-0.098 0.332-0.404 1.005-1.997 2.295-3.507 3.539-0.879 0.726-1.781 1.47-2.559 2.207-0.631 0.598-1.182 1.192-1.724 1.779-0.502 0.542-0.998 1.079-1.53 1.584-0.872 0.825-1.845 1.571-3.14 2.155-2.889 1.301-7.345 1.766-11.67 2.224-0.136 0.015-0.273-0.029-0.377-0.118-1.919-1.66-3.712-3.194-5.736-3.633-0.071-0.015-0.143-0.030-0.215-0.042-1.978-0.352-4.222 0.269-6.616 0.946-0.264 0.074-0.54-0.079-0.614-0.343s0.079-0.54 0.343-0.614c2.332-0.658 4.813-1.369 7.061-0.968 0.084 0.015 0.17 0.030 0.254 0.049 2.32 0.505 4.31 2.241 6.175 3.854l-0.379-0.12c4.394-0.465 8.657-0.921 11.365-2.141 1.167-0.525 2.049-1.199 2.864-1.97 0.505-0.478 0.98-0.992 1.485-1.539 0.54-0.582 1.113-1.202 1.769-1.825 0.808-0.766 1.739-1.532 2.611-2.253 1.641-1.354 2.934-2.439 3.217-3.143 0.022-0.052 0.034-0.098 0.040-0.135 0.020-0.114 0.017-0.322-0.535-0.419-0.675-0.12-1.842 0.050-3.263 0.753-0.052 0.025-0.106 0.052-0.158 0.079-1.36 0.7-2.894 1.835-4.485 3.012-1.589 1.177-3.236 2.397-4.737 3.17-2.448 1.259-4.51 1.338-6.084 1.059-0.407-0.074-0.779-0.17-1.114-0.273-0.721-0.224-1.503-0.549-1.783-1.061-0.020-0.035-0.037-0.076-0.054-0.116-0.094-0.249-0.069-0.51 0.066-0.742 0.209-0.364 0.665-0.618 1.21-0.825 0.722-0.274 1.832-0.544 3.002-0.83 1.85-0.451 3.882-0.95 5.182-1.596 0.909-0.451 1.391-0.943 1.576-1.337 0.195-0.423 0.098-0.827-0.539-1.125-0.237-0.109-0.547-0.2-0.933-0.269-1.586-0.281-4.052-0.131-6.62 0.029l0.088-0.013c-3.519 0.865-7.088 1.742-9.919 2.044-2.845 0.303-4.939 0.025-6.987-0.247l-0.020-0.003c-0.271-0.037-0.463-0.286-0.428-0.559 0.037-0.273 0.288-0.463 0.559-0.428z"></path>
<path fill="#160a58" d="M18.665 14.67c0.049 0.253 0.285 0.424 0.539 0.394 0.256-0.030 0.444-0.254 0.433-0.51-0.256-5.261-0.483-11.020-3.857-13.158-2.249-1.426-5.763-1.162-9.481-0.448-1.901 0.364-3.907 0.859-5.897 1.349-0.183 0.045-0.325 0.192-0.362 0.377-0.039 0.185 0.034 0.375 0.183 0.49 5.012 3.786 10.249 7.769 13.332 8.066 0.372 0.037 0.719 0.022 1.042-0.040 1.968-0.377 2.667-2.354 2.362-3.949-0.106-0.545-0.328-1.077-0.675-1.527-1.503-1.948-5.2-2.079-8.453-2.234-0.271-0.013-0.5 0.195-0.513 0.466-0.012 0.269 0.197 0.5 0.466 0.512 3.507 0.167 6.569 0.357 7.724 1.855 0.244 0.315 0.409 0.7 0.488 1.113 0.246 1.283-0.342 2.564-1.582 2.801-0.224 0.042-0.478 0.056-0.764 0.029-2.727-0.263-7.667-3.97-12.835-7.874l-0.178 0.867c1.997-0.492 3.976-0.978 5.848-1.338 3.764-0.721 6.894-0.875 8.773 0.315 2.835 1.798 3.133 6.837 3.401 12.377l0.971-0.116c-0.050-0.266-0.308-0.439-0.574-0.389s-0.439 0.308-0.389 0.574z"></path>
<path fill="#160a58" d="M19.672 14.668c-0.049 0.252-0.285 0.426-0.54 0.396-0.254-0.032-0.443-0.254-0.431-0.512 0.256-5.259 0.483-11.018 3.857-13.157 2.249-1.426 5.763-1.162 9.482-0.45 1.901 0.365 3.906 0.859 5.897 1.349 0.183 0.045 0.325 0.194 0.362 0.379 0.039 0.185-0.034 0.375-0.183 0.488-5.012 3.786-10.249 7.771-13.332 8.067-0.372 0.035-0.721 0.020-1.042-0.042-1.968-0.377-2.668-2.352-2.362-3.948 0.104-0.547 0.328-1.077 0.673-1.527 1.505-1.949 5.202-2.081 8.455-2.236 0.271-0.012 0.5 0.197 0.513 0.466 0.012 0.271-0.197 0.5-0.466 0.513-3.508 0.167-6.569 0.357-7.726 1.855-0.242 0.313-0.407 0.7-0.487 1.113-0.246 1.283 0.342 2.562 1.582 2.801 0.224 0.042 0.478 0.056 0.764 0.027 2.727-0.263 7.667-3.968 12.835-7.872l0.178 0.867c-1.997-0.492-3.976-0.98-5.849-1.338-3.766-0.722-6.894-0.877-8.773 0.315-2.835 1.796-3.133 6.837-3.401 12.377l-0.971-0.116c0.051-0.266 0.308-0.441 0.574-0.389 0.266 0.051 0.439 0.306 0.389 0.572z"></path>
</svg>
