<svg width="120" height="99" viewBox="0 0 120 99" fill="none" xmlns="http://www.w3.org/2000/svg">
<path d="M4.80703 56L4.86953 56.0105C11.1768 56.849 17.3435 57.6615 25.7549 56.7657C34.2602 55.8646 45.0727 53.2084 56.031 50.5157C56.1195 50.4948 56.2133 50.4792 56.3018 50.474C64.0727 49.9896 72.156 49.474 77.5154 50.4271C78.8591 50.6667 80.1039 51.0105 81.1612 51.5052C84.3643 53 85.7758 55.9375 84.3122 59.073C83.3331 61.1771 81.1508 63.1094 78.0206 64.6667C73.6247 66.849 66.9424 68.4688 61.3487 69.8334C57.6404 70.7396 54.4372 71.5261 52.4268 72.2865C50.7706 72.9167 50.3122 73.3959 50.2549 73.5052C50.281 73.4532 50.3122 73.2969 50.2654 73.1667C50.2602 73.1563 50.2549 73.1511 50.2549 73.1511C50.4216 73.4532 51.4997 74.1927 53.9789 74.9584C54.9112 75.25 55.9372 75.5105 57.057 75.7136C61.307 76.4688 66.9997 76.3021 73.9268 72.7344C78.307 70.4792 83.182 66.875 88.1664 63.1875C93.0206 59.5938 97.9841 55.9115 102.458 53.6094C102.635 53.5157 102.817 53.4271 102.995 53.3386C107.708 51.0105 112.01 50.2084 114.989 50.7396C117.422 51.1719 119.646 52.7605 119.14 55.6094C119.078 55.9532 118.979 56.2969 118.838 56.6355C117.588 59.7448 112.661 63.7344 107.989 67.5834C105.271 69.8282 102.479 72.1302 100.073 74.4115C98.1195 76.2605 96.4164 78.099 94.7393 79.9167C93.1872 81.5938 91.6508 83.2552 90.0049 84.8177C87.307 87.3698 84.2966 89.6771 80.2914 91.4844C71.3539 95.5105 57.5674 96.948 44.1872 98.3646C43.7654 98.4115 43.3435 98.2761 43.0206 98C37.0831 92.8646 31.5362 88.1198 25.2758 86.7605C25.057 86.7136 24.8331 86.6667 24.6091 86.6302C18.4893 85.5417 11.5466 87.4636 4.14036 89.5573C3.32265 89.7865 2.46849 89.3125 2.23932 88.4948C2.01015 87.6771 2.48411 86.823 3.30182 86.5938C10.5154 84.5573 18.1924 82.3594 25.1456 83.599C25.406 83.6459 25.6716 83.6927 25.932 83.75C33.1091 85.3125 39.2654 90.6823 45.0362 95.6719L43.8643 95.3021C57.4581 93.8646 70.6456 92.4532 79.0258 88.6771C82.6352 87.0521 85.3643 84.9688 87.8852 82.5834C89.4477 81.1042 90.9164 79.5157 92.4789 77.823C94.1508 76.0209 95.9216 74.1042 97.9529 72.1771C100.453 69.8073 103.333 67.4375 106.031 65.2084C111.109 61.0209 115.109 57.6615 115.984 55.4844C116.052 55.323 116.088 55.1823 116.109 55.0677C116.172 54.7136 116.161 54.073 114.453 53.7709C112.364 53.4011 108.755 53.9271 104.359 56.099C104.198 56.1771 104.031 56.2605 103.87 56.3438C99.6612 58.5105 94.9164 62.0209 89.9945 65.6615C85.0779 69.3021 79.9841 73.0782 75.3383 75.4688C67.7654 79.3646 61.3852 79.6094 56.5154 78.7448C55.2549 78.5157 54.1039 78.2188 53.0674 77.9011C50.8383 77.2084 48.4164 76.2032 47.5518 74.6198C47.4893 74.5105 47.4372 74.3855 47.3852 74.2605C47.0935 73.4896 47.1716 72.6823 47.5883 71.9636C48.2341 70.8386 49.6456 70.0521 51.3331 69.4115C53.5674 68.5625 56.9997 67.7292 60.6195 66.8438C66.3435 65.448 72.6299 63.9063 76.6508 61.9063C79.4633 60.5105 80.9529 58.9896 81.5258 57.7709C82.1299 56.4636 81.8279 55.2136 79.8591 54.2917C79.1247 53.9532 78.1664 53.6719 76.9737 53.4584C72.0674 52.5886 64.4372 53.0521 56.4945 53.5469L56.7654 53.5052C45.8799 56.1823 34.8383 58.8959 26.0779 59.8282C17.2758 60.7657 10.7966 59.9063 4.46328 59.0625L4.40078 59.0521C3.56224 58.9375 2.96849 58.1667 3.07786 57.323C3.19245 56.4792 3.96849 55.8907 4.80703 56Z" fill="#160A58"/>
<mask id="mask0_1794_11878" style="mask-type:luminance" maskUnits="userSpaceOnUse" x="0" y="0" width="61" height="47">
<path d="M0 0H60.9531V46.6667H0V0Z" fill="white"/>
</mask>
<g mask="url(#mask0_1794_11878)">
<path d="M57.7448 45.3851C57.8958 46.1664 58.625 46.6976 59.4114 46.6039C60.2031 46.5101 60.7864 45.8174 60.75 45.0258C59.9583 28.7497 59.2552 10.932 48.8177 4.31743C41.8594 -0.0940294 30.9896 0.723678 19.4844 2.93201C13.6041 4.05701 7.39582 5.58826 1.23957 7.10389C0.671856 7.24451 0.234358 7.69764 0.119774 8.27055C-1.80006e-05 8.84347 0.223941 9.43201 0.687482 9.78618C16.1927 21.4997 32.3958 33.8226 41.9323 34.7393C43.0833 34.8539 44.1562 34.807 45.1562 34.6143C51.2448 33.4476 53.4062 27.3331 52.4635 22.3956C52.1354 20.7081 51.4479 19.0622 50.375 17.6716C45.7239 11.6456 34.2864 11.2393 24.2239 10.7601C23.3854 10.7185 22.6771 11.3643 22.6354 12.2028C22.5989 13.0362 23.2448 13.7497 24.0781 13.7862C34.9271 14.3018 44.401 14.8903 47.9739 19.5258C48.7292 20.4997 49.2396 21.6924 49.4844 22.9685C50.2448 26.9372 48.4271 30.9008 44.5885 31.6351C43.8958 31.7653 43.1094 31.807 42.2239 31.7237C33.7864 30.9112 18.5052 19.4424 2.51561 7.3643L1.96352 10.0466C8.14061 8.52576 14.2656 7.02055 20.0573 5.90597C31.7031 3.6768 41.3854 3.19764 47.1979 6.87993C55.9687 12.4424 56.8906 28.031 57.7187 45.1716L60.7239 44.8122C60.5677 43.9893 59.7708 43.4528 58.9479 43.6091C58.125 43.7653 57.5885 44.5622 57.7448 45.3851Z" fill="#160A58"/>
</g>
<path d="M60.8594 45.3802C60.7083 46.1614 59.9792 46.6979 59.1875 46.6041C58.401 46.5052 57.8177 45.8177 57.8542 45.0208C58.6458 28.75 59.3489 10.9323 69.7864 4.31768C76.7448 -0.093778 87.6146 0.72393 99.1198 2.92705C105 4.05726 111.203 5.5833 117.365 7.09893C117.932 7.23956 118.37 7.69789 118.484 8.2708C118.604 8.84372 118.38 9.43226 117.917 9.78122C102.411 21.4948 86.2083 33.8229 76.6719 34.7396C75.5208 34.8489 74.4427 34.8021 73.4479 34.6093C67.3594 33.4427 65.1927 27.3333 66.1406 22.3958C66.4635 20.7031 67.1562 19.0625 68.224 17.6718C72.8802 11.6406 84.3177 11.2343 94.3802 10.7552C95.2187 10.7187 95.9271 11.3646 95.9687 12.1979C96.0052 13.0364 95.3594 13.7448 94.526 13.7864C83.6719 14.3021 74.2031 14.8906 70.625 19.526C69.875 20.4948 69.3646 21.6927 69.1198 22.9687C68.3594 26.9375 70.1771 30.8958 74.0156 31.6354C74.7083 31.7656 75.4948 31.8073 76.3802 31.7187C84.8177 30.9062 100.099 19.4427 116.089 7.36455L116.641 10.0468C110.464 8.52601 104.339 7.0156 98.5469 5.90622C86.8958 3.67185 77.2187 3.19268 71.4062 6.88018C62.6354 12.4375 61.7135 28.0312 60.8854 45.1718L57.8802 44.8125C58.0365 43.9896 58.8333 43.4479 59.6562 43.6093C60.4792 43.7656 61.0156 44.5573 60.8594 45.3802Z" fill="#160A58"/>
</svg>
