<!-- Generated by IcoMoon.io -->
<svg version="1.1" xmlns="http://www.w3.org/2000/svg" width="32" height="32" viewBox="0 0 32 32">
<path fill="#160a58" d="M15.937 31.875c8.703 0 15.937-7.219 15.937-15.937 0-8.703-7.25-15.937-15.953-15.937-8.718 0-15.921 7.234-15.921 15.937 0 8.719 7.218 15.937 15.937 15.937zM15.937 29.219c-7.376 0-13.267-5.907-13.267-13.281 0-7.36 5.875-13.281 13.251-13.281 7.359 0 13.281 5.922 13.297 13.281 0.015 7.375-5.922 13.281-13.281 13.281zM15.921 18.765c0.749 0 1.171-0.422 1.187-1.234l0.235-8.25c0.016-0.797-0.609-1.391-1.437-1.391-0.844 0-1.437 0.578-1.422 1.375l0.203 8.266c0.015 0.797 0.453 1.234 1.235 1.234zM15.921 23.843c0.89 0 1.687-0.719 1.687-1.625 0-0.922-0.781-1.625-1.687-1.625-0.922 0-1.688 0.719-1.688 1.625 0 0.891 0.781 1.625 1.688 1.625z"></path>
</svg>
