<svg width="111" height="101" viewBox="0 0 111 101" fill="none" xmlns="http://www.w3.org/2000/svg">
<mask id="mask0_1791_636" style="mask-type:luminance" maskUnits="userSpaceOnUse" x="0" y="0" width="111" height="101">
<path d="M0 0H110.766V100.948H0V0Z" fill="white"/>
</mask>
<g mask="url(#mask0_1791_636)">
<path d="M31.7603 100.474C30.9999 100.474 30.2603 100.417 29.5312 100.302C27.6301 100.006 25.8749 99.3337 24.3124 98.2972C22.828 97.3076 21.552 96.0264 20.5312 94.4847C18.203 90.9639 17.3853 86.3701 18.2968 81.8805C18.7708 79.5264 19.6978 77.2868 21.0416 75.2191C22.4843 73.0107 24.3749 71.0628 26.6614 69.4326C30.0051 67.0472 32.0833 63.4222 32.3697 59.4691C32.1978 55.9795 32.927 52.7868 34.5416 49.9795C36.026 47.3962 38.2083 45.2139 41.0312 43.4951C44.9791 41.0889 50.0416 39.7347 55.2812 39.6826C60.5364 39.6253 65.6301 40.8857 69.6197 43.2295C72.4947 44.917 74.7343 47.1045 76.276 49.7243C77.9478 52.5732 78.7291 55.8389 78.6093 59.443C79.1041 64.6253 82.3176 67.5524 85.7135 70.6514C88.0416 72.7712 90.4478 74.9691 92.0572 77.9587C93.8905 81.3701 94.3749 85.3076 93.5364 89.9951L93.5312 90.016C92.7083 94.2816 90.4583 97.3962 87.0364 99.0212C82.2916 101.271 75.526 100.5 68.9374 96.9535C64.1822 94.4274 61.0051 92.8753 55.9166 92.8701H55.8958C50.7135 92.8701 46.2551 95.016 42.9426 96.891C40.5364 98.3597 38.151 99.391 35.8541 99.9587C34.453 100.302 33.0833 100.474 31.7603 100.474ZM55.6093 42.568C50.9374 42.568 46.2499 43.7035 42.5364 45.9639C38.9999 48.1149 34.8697 52.193 35.2603 59.4014L35.2655 59.4899L35.2603 59.5785C34.9374 64.4326 32.4166 68.8805 28.3385 71.7868C20.1093 77.6566 19.1301 87.1253 22.9426 92.8857C25.8749 97.3128 32.276 100.037 41.453 94.4118L41.4947 94.3857C43.8333 93.0576 45.8645 92.1149 47.8801 91.4118C50.6041 90.4587 53.302 89.9795 55.8958 89.9795H55.9218C61.578 89.9847 65.1249 91.6514 70.2968 94.3962L70.3072 94.4014C75.9999 97.4691 81.9374 98.2399 85.7968 96.4118C88.3905 95.1774 90.0364 92.8441 90.6874 89.4743C92.2864 80.5576 88.3385 76.9587 83.7655 72.7868C81.9739 71.1514 80.1197 69.4639 78.6405 67.4118C76.9322 65.0316 75.9791 62.4795 75.7187 59.6149L75.7135 59.5212V59.4326C75.9999 51.9378 71.7603 47.8389 68.151 45.7243C64.5676 43.6149 60.0937 42.568 55.6093 42.568ZM40.2447 40.5889C40.0416 40.5889 39.8333 40.5837 39.6249 40.5732L39.552 40.568C37.0989 40.318 34.8749 39.5055 32.9322 38.1566C31.1458 36.917 29.6301 35.2399 28.4218 33.1774C26.2291 29.4378 25.1666 24.5889 25.4322 19.5212C25.6926 14.4535 27.2499 9.7347 29.8176 6.23991C31.2291 4.31283 32.9166 2.80762 34.8228 1.75553C36.8905 0.614909 39.1822 0.0419922 41.6405 0.0419922H41.7291C43.8541 0.151367 45.8853 0.823242 47.7603 2.03158C49.5364 3.1722 51.0937 4.75033 52.3905 6.71387C54.9947 10.6566 56.276 15.7712 55.9999 21.1045C55.7239 26.4378 53.9218 31.391 50.9166 35.0472C49.427 36.8649 47.7135 38.2712 45.8333 39.2243C44.0364 40.1305 42.1614 40.5889 40.2447 40.5889ZM39.8072 37.6878C43.0364 37.8441 46.1822 36.2555 48.6822 33.2087C51.2968 30.0264 52.8697 25.6774 53.1145 20.9535C53.3593 16.2347 52.2447 11.7399 49.9739 8.30762C47.8072 5.02116 44.8385 3.11491 41.6145 2.93262C33.0728 2.95345 28.7343 11.6149 28.3176 19.667C27.901 27.7243 31.3228 36.7868 39.8072 37.6878ZM74.6145 40.6097C72.3176 40.6097 70.1562 40.0941 68.1822 39.0785C66.2499 38.0837 64.526 36.6201 63.0572 34.7347C60.3958 31.3128 58.7083 26.641 58.3072 21.5837C57.9062 16.5264 58.828 11.6462 60.9166 7.84408C62.0676 5.75033 63.5364 4.03157 65.2916 2.74512C67.1926 1.34407 69.3958 0.469075 71.8385 0.146159L71.9114 0.140951C74.0364 -0.0309241 76.1405 0.370118 78.1562 1.32324C80.0624 2.22428 81.8124 3.57845 83.3541 5.35449C86.4583 8.92741 88.3958 13.8285 88.8228 19.1514C89.2447 24.4743 88.1041 29.6201 85.6041 33.641C84.3645 35.6357 82.8541 37.2555 81.1093 38.443C79.2708 39.7035 77.2551 40.4326 75.1301 40.5993L75.0572 40.6045C74.9114 40.6097 74.7655 40.6097 74.6145 40.6097ZM72.177 3.02116C63.7135 4.15658 60.5468 13.3128 61.1874 21.3545C61.828 29.3909 66.4062 37.9274 74.9374 37.7139C78.1562 37.443 81.0728 35.4587 83.151 32.1097C85.3228 28.6149 86.3124 24.0941 85.9374 19.3805C85.5624 14.667 83.8697 10.3597 81.1718 7.25033C78.5885 4.28158 75.401 2.77637 72.177 3.02116ZM16.1718 65.3232C14.651 65.3232 13.1718 65.0628 11.7499 64.542C9.83846 63.8441 8.06763 62.6878 6.4895 61.1149C3.63013 58.2555 1.52075 54.1357 0.557212 49.5055C-0.401121 44.8753 -0.114662 40.2503 1.37492 36.4899C2.19263 34.417 3.35929 32.6514 4.83325 31.2503C6.43742 29.7243 8.38013 28.6566 10.6093 28.0732L10.677 28.0576C12.6353 27.6514 14.6301 27.7764 16.6197 28.4222C18.4947 29.0368 20.276 30.0889 21.9114 31.5576C25.1978 34.5003 27.5624 38.8076 28.578 43.6826C29.5885 48.5576 29.1353 53.4482 27.2916 57.4587C26.3749 59.4535 25.1614 61.1305 23.6822 62.4378C22.1197 63.8232 20.3385 64.7347 18.3801 65.141L18.3072 65.1514C17.5885 65.266 16.8749 65.3232 16.1718 65.3232ZM11.302 30.8805C7.052 32.0107 5.02075 35.1305 4.06242 37.5576C2.78117 40.7972 2.54159 44.8337 3.39055 48.917C4.2395 53.0003 6.06763 56.6045 8.53117 59.068C10.3801 60.9066 13.4843 62.9587 17.828 62.3024C20.7239 61.6878 23.151 59.5368 24.6614 56.2503C26.2499 52.7972 26.6353 48.542 25.7447 44.2712C24.8593 39.9951 22.8124 36.2451 19.9791 33.7087C17.2864 31.2972 14.203 30.292 11.302 30.8805ZM94.0051 67.6201C93.0676 67.6201 92.1405 67.5003 91.2239 67.266L91.1562 67.2451C88.9583 66.5628 87.0676 65.4066 85.5364 63.8076C84.1301 62.3389 83.0468 60.5264 82.3228 58.4118C81.0155 54.5889 80.9374 49.9587 82.1145 45.3805C83.2916 40.7972 85.5833 36.7764 88.578 34.0524C90.2291 32.5524 92.052 31.4795 93.9895 30.8701C96.0989 30.2087 98.3176 30.1097 100.573 30.568L100.646 30.5837C102.583 31.0785 104.323 32.068 105.818 33.5264C107.229 34.9014 108.365 36.6357 109.187 38.6722C110.844 42.7607 111.073 47.6722 109.833 52.4951C108.594 57.3128 106.026 61.5055 102.609 64.292C100.906 65.6826 99.078 66.6514 97.177 67.1774C96.1145 67.4691 95.052 67.6201 94.0051 67.6201ZM91.9791 64.4743C94.8541 65.1982 97.9739 64.3389 100.781 62.0524C103.724 59.6514 105.943 56.0003 107.031 51.7712C108.115 47.5472 107.932 43.2764 106.505 39.7555C105.151 36.4014 102.828 34.141 99.9635 33.391C95.651 32.5316 92.453 34.4378 90.5208 36.193C87.9426 38.542 85.953 42.0576 84.9166 46.0993C83.8801 50.1357 83.9322 54.1774 85.0624 57.4743C85.9062 59.943 87.7916 63.1514 91.9791 64.4743Z" fill="#160A58"/>
</g>
</svg>
