<!-- Generated by IcoMoon.io -->
<svg version="1.1" xmlns="http://www.w3.org/2000/svg" width="36" height="32" viewBox="0 0 36 32">
<path fill="#160a58" d="M10.090 31.919c-0.238 0-0.476-0.014-0.705-0.052-0.605-0.095-1.162-0.309-1.662-0.638-0.471-0.314-0.876-0.719-1.2-1.209-0.743-1.119-1-2.581-0.71-4.005 0.152-0.748 0.443-1.462 0.871-2.119 0.457-0.7 1.057-1.319 1.786-1.838 1.062-0.757 1.724-1.91 1.814-3.167-0.057-1.105 0.176-2.124 0.69-3.014 0.471-0.819 1.167-1.514 2.062-2.062 1.257-0.762 2.862-1.195 4.529-1.21 1.672-0.019 3.286 0.381 4.557 1.129 0.914 0.533 1.624 1.229 2.114 2.062 0.529 0.905 0.781 1.943 0.743 3.090 0.157 1.643 1.176 2.576 2.257 3.557 0.738 0.676 1.5 1.371 2.014 2.324 0.581 1.086 0.738 2.338 0.471 3.824l-0.005 0.009c-0.262 1.352-0.976 2.343-2.062 2.862-1.51 0.714-3.657 0.467-5.752-0.657-1.509-0.805-2.519-1.295-4.138-1.3h-0.005c-1.648 0-3.062 0.681-4.114 1.276-0.767 0.471-1.524 0.795-2.257 0.976-0.443 0.11-0.876 0.162-1.3 0.162zM17.671 13.519c-1.486 0-2.976 0.362-4.157 1.081-1.124 0.686-2.433 1.981-2.309 4.271v0.057c-0.105 1.538-0.905 2.952-2.2 3.876-2.614 1.867-2.929 4.876-1.714 6.705 0.929 1.409 2.967 2.271 5.881 0.486l0.014-0.009c0.743-0.419 1.386-0.719 2.029-0.943 0.867-0.305 1.724-0.457 2.548-0.457h0.009c1.795 0.005 2.924 0.533 4.567 1.405 1.814 0.976 3.7 1.224 4.924 0.638 0.824-0.39 1.348-1.128 1.557-2.2 0.505-2.833-0.748-3.981-2.205-5.305-0.567-0.519-1.157-1.057-1.624-1.71-0.543-0.757-0.848-1.567-0.929-2.476l-0.005-0.029v-0.029c0.095-2.381-1.252-3.686-2.4-4.357-1.138-0.671-2.562-1.005-3.986-1.005zM12.79 12.895c-0.067 0-0.133-0.005-0.2-0.009h-0.024c-0.776-0.081-1.486-0.338-2.1-0.767-0.571-0.395-1.052-0.924-1.438-1.581-0.695-1.191-1.033-2.729-0.948-4.343 0.081-1.61 0.576-3.105 1.395-4.219 0.448-0.61 0.981-1.090 1.586-1.424 0.657-0.362 1.391-0.543 2.171-0.543h0.024c0.676 0.033 1.324 0.248 1.919 0.629 0.562 0.367 1.057 0.867 1.471 1.49 0.829 1.252 1.233 2.876 1.148 4.571-0.090 1.695-0.662 3.267-1.614 4.429-0.476 0.581-1.019 1.029-1.619 1.329-0.571 0.29-1.167 0.438-1.771 0.438zM12.648 11.971c1.029 0.048 2.029-0.457 2.824-1.424 0.829-1.010 1.329-2.395 1.405-3.895 0.081-1.5-0.276-2.929-0.995-4.019-0.69-1.043-1.633-1.648-2.657-1.705-2.714 0.005-4.090 2.757-4.224 5.314-0.133 2.562 0.952 5.443 3.648 5.729zM23.71 12.9c-0.729 0-1.414-0.167-2.043-0.486-0.614-0.319-1.162-0.781-1.629-1.381-0.848-1.090-1.381-2.571-1.51-4.181-0.129-1.605 0.167-3.157 0.829-4.367 0.367-0.662 0.833-1.21 1.39-1.619 0.605-0.448 1.305-0.724 2.081-0.824l0.024-0.005c0.676-0.052 1.343 0.071 1.981 0.376 0.61 0.286 1.162 0.719 1.652 1.281 0.986 1.138 1.605 2.695 1.738 4.386s-0.229 3.329-1.024 4.605c-0.39 0.633-0.871 1.148-1.429 1.524-0.581 0.4-1.224 0.633-1.895 0.686h-0.024c-0.048 0.005-0.095 0.005-0.143 0.005zM22.933 0.952c-2.686 0.362-3.695 3.271-3.49 5.829 0.205 2.552 1.657 5.267 4.371 5.2 1.019-0.086 1.948-0.719 2.609-1.781 0.69-1.114 1.005-2.548 0.886-4.048-0.119-1.495-0.657-2.867-1.514-3.852-0.824-0.948-1.838-1.424-2.862-1.348zM5.138 20.752c-0.481 0-0.952-0.086-1.405-0.248-0.605-0.224-1.171-0.59-1.671-1.090-0.91-0.91-1.581-2.219-1.886-3.69s-0.214-2.938 0.257-4.133c0.262-0.662 0.633-1.219 1.1-1.667 0.51-0.481 1.129-0.824 1.838-1.010l0.019-0.005c0.624-0.129 1.257-0.090 1.89 0.119 0.595 0.191 1.162 0.529 1.681 0.995 1.043 0.933 1.795 2.3 2.119 3.852 0.319 1.548 0.176 3.105-0.41 4.376-0.29 0.633-0.676 1.167-1.148 1.586-0.495 0.438-1.062 0.729-1.681 0.857l-0.024 0.005c-0.229 0.033-0.457 0.052-0.681 0.052zM3.59 9.809c-1.348 0.357-1.995 1.348-2.3 2.119-0.41 1.029-0.481 2.314-0.214 3.61 0.271 1.3 0.852 2.443 1.633 3.224 0.586 0.586 1.576 1.238 2.957 1.029 0.919-0.195 1.69-0.876 2.171-1.924 0.505-1.095 0.624-2.448 0.343-3.805s-0.933-2.548-1.833-3.357c-0.857-0.767-1.833-1.086-2.757-0.895zM29.871 21.481c-0.3 0-0.595-0.038-0.881-0.11l-0.024-0.009c-0.7-0.214-1.3-0.586-1.786-1.090-0.448-0.467-0.791-1.043-1.024-1.714-0.414-1.214-0.438-2.686-0.067-4.143 0.376-1.457 1.105-2.733 2.057-3.6 0.524-0.476 1.1-0.814 1.719-1.010 0.671-0.21 1.376-0.243 2.090-0.095l0.024 0.005c0.614 0.157 1.167 0.472 1.643 0.933 0.452 0.438 0.809 0.99 1.071 1.633 0.524 1.3 0.6 2.862 0.205 4.395s-1.21 2.862-2.295 3.748c-0.543 0.443-1.124 0.752-1.724 0.919-0.338 0.090-0.676 0.138-1.009 0.138zM29.229 20.481c0.91 0.233 1.905-0.043 2.795-0.767 0.938-0.762 1.643-1.924 1.986-3.267 0.348-1.343 0.286-2.7-0.167-3.819-0.429-1.067-1.167-1.786-2.081-2.024-1.367-0.271-2.386 0.333-2.995 0.89-0.824 0.748-1.452 1.862-1.786 3.148-0.329 1.286-0.309 2.567 0.048 3.614 0.267 0.786 0.867 1.805 2.2 2.224z"></path>
</svg>
