<!-- Generated by IcoMoon.io -->
<svg version="1.1" xmlns="http://www.w3.org/2000/svg" width="31" height="32" viewBox="0 0 31 32">
<path fill="#160a58" d="M7.735 19.084c0.867 0 1.547-0.905 1.547-2.062 0-1.158-0.68-2.063-1.547-2.063s-1.547 0.905-1.547 2.063c0 1.157 0.68 2.062 1.547 2.062zM7.735 15.991c0.211 0 0.516 0.401 0.516 1.032 0 0.63-0.305 1.030-0.516 1.030s-0.516-0.401-0.516-1.030c0-0.631 0.305-1.032 0.516-1.032z"></path>
<path fill="#160a58" d="M13.408 18.053c-0.867 0-1.547 0.907-1.547 2.063 0.002 0.099 0.009 0.198 0.021 0.296-0.318-0.396-0.704-0.711-1.158-0.943-0.453-0.231-0.934-0.359-1.441-0.385-0.509 0.026-0.99 0.154-1.443 0.385-0.454 0.232-0.84 0.546-1.158 0.943 0.012-0.098 0.019-0.197 0.021-0.296 0-1.157-0.68-2.063-1.547-2.063s-1.547 0.907-1.547 2.063c0 1.157 0.68 2.063 1.547 2.063 0.224-0.001 0.434-0.059 0.626-0.173-0.069 0.225-0.106 0.454-0.11 0.689 0 1.444 1.586 2.578 3.61 2.578 2.024 0 3.609-1.134 3.609-2.578-0.005-0.235-0.042-0.465-0.11-0.689 0.193 0.114 0.402 0.172 0.626 0.173 0.867 0 1.547-0.907 1.547-2.063s-0.68-2.063-1.547-2.063zM5.156 21.147c-0.211 0-0.516-0.402-0.516-1.032s0.305-1.032 0.516-1.032c0.211 0 0.516 0.402 0.516 1.032s-0.305 1.032-0.516 1.032zM9.283 24.241c-1.398 0-2.579-0.708-2.579-1.546 0-0.872 1.168-2.579 2.579-2.579 1.41 0 2.578 1.708 2.578 2.579 0 0.839-1.18 1.546-2.578 1.546zM13.408 21.147c-0.211 0-0.516-0.402-0.516-1.032s0.305-1.032 0.516-1.032c0.211 0 0.516 0.402 0.516 1.032s-0.305 1.032-0.516 1.032z"></path>
<path fill="#160a58" d="M10.829 19.084c0.868 0 1.547-0.905 1.547-2.062 0-1.158-0.679-2.063-1.547-2.063-0.867 0-1.546 0.905-1.546 2.063 0 1.157 0.679 2.062 1.546 2.062zM10.829 15.991c0.211 0 0.516 0.401 0.516 1.032 0 0.63-0.305 1.030-0.516 1.030s-0.516-0.401-0.516-1.030c0-0.631 0.305-1.032 0.516-1.032z"></path>
<path fill="#160a58" d="M29.394 11.349h-10.834c-0.007-0.307-0.036-0.613-0.090-0.916-0.053-0.303-0.13-0.6-0.229-0.892-0.1-0.291-0.222-0.573-0.365-0.845-0.143-0.273-0.306-0.533-0.49-0.779-0.184-0.248-0.385-0.479-0.605-0.695-0.22-0.215-0.454-0.413-0.704-0.592s-0.512-0.338-0.787-0.476c-0.275-0.14-0.559-0.256-0.851-0.35v-0.738c0.15-0.053 0.288-0.127 0.416-0.224 0.127-0.096 0.238-0.208 0.33-0.339 0.092-0.13 0.163-0.27 0.212-0.422s0.073-0.307 0.074-0.467v-2.062c0-0.101-0.010-0.203-0.030-0.302-0.019-0.1-0.048-0.197-0.088-0.291-0.038-0.093-0.087-0.182-0.143-0.268-0.056-0.084-0.12-0.162-0.193-0.234-0.072-0.071-0.15-0.135-0.234-0.193-0.084-0.056-0.173-0.104-0.267-0.142-0.095-0.039-0.191-0.069-0.291-0.089-0.1-0.019-0.2-0.029-0.302-0.029h-9.283c-0.101 0-0.202 0.010-0.302 0.029-0.099 0.020-0.196 0.050-0.291 0.089-0.093 0.038-0.182 0.086-0.267 0.142-0.084 0.057-0.162 0.122-0.234 0.193-0.072 0.072-0.136 0.15-0.193 0.235-0.056 0.084-0.104 0.173-0.143 0.267s-0.069 0.19-0.088 0.291c-0.020 0.099-0.030 0.2-0.030 0.302v2.062c0.001 0.16 0.026 0.315 0.074 0.467 0.050 0.152 0.119 0.293 0.212 0.422 0.092 0.131 0.203 0.243 0.33 0.339 0.127 0.097 0.266 0.171 0.416 0.224v0.738c-0.297 0.096-0.587 0.215-0.866 0.357s-0.545 0.304-0.798 0.488c-0.255 0.184-0.492 0.386-0.713 0.608-0.222 0.221-0.425 0.458-0.609 0.712-0.184 0.253-0.347 0.519-0.49 0.798-0.142 0.278-0.261 0.568-0.358 0.865-0.097 0.298-0.169 0.601-0.218 0.911-0.048 0.31-0.072 0.62-0.072 0.934v17.922c0 0.169 0.017 0.337 0.050 0.502 0.034 0.167 0.082 0.328 0.148 0.484 0.064 0.155 0.144 0.304 0.239 0.445 0.093 0.141 0.2 0.271 0.32 0.391 0.12 0.119 0.25 0.226 0.391 0.321s0.289 0.173 0.446 0.238c0.157 0.065 0.318 0.114 0.483 0.148 0.166 0.033 0.333 0.049 0.502 0.049h13.409c0.577 0 1.095-0.174 1.554-0.523 0.455 0.347 0.967 0.521 1.539 0.523h8.251c0.169 0 0.337-0.017 0.502-0.049 0.167-0.034 0.328-0.082 0.484-0.148 0.157-0.064 0.304-0.144 0.445-0.238s0.271-0.201 0.391-0.321 0.226-0.25 0.321-0.391c0.093-0.141 0.173-0.29 0.239-0.445 0.064-0.157 0.114-0.317 0.146-0.484 0.034-0.166 0.049-0.333 0.051-0.502v-12.988c0.15-0.053 0.288-0.127 0.416-0.223 0.127-0.097 0.238-0.209 0.33-0.339 0.092-0.131 0.162-0.271 0.212-0.423 0.048-0.151 0.073-0.307 0.073-0.466v-2.063c0-0.101-0.009-0.202-0.029-0.302-0.020-0.099-0.050-0.196-0.088-0.291-0.039-0.093-0.087-0.182-0.143-0.267s-0.12-0.163-0.193-0.234c-0.072-0.072-0.15-0.136-0.234-0.193s-0.173-0.105-0.268-0.143c-0.093-0.039-0.19-0.069-0.289-0.088-0.1-0.020-0.2-0.030-0.302-0.030zM16.502 16.411v9.893h-15.471v-12.376h14.439v1.032c0 0.159 0.025 0.315 0.073 0.466 0.050 0.152 0.119 0.293 0.212 0.423 0.092 0.13 0.203 0.242 0.33 0.339 0.127 0.096 0.266 0.17 0.417 0.223zM24.752 15.475v-3.095h1.032v3.095h-1.032zM23.721 15.475h-1.030v-3.095h1.030v3.095zM21.659 15.475h-1.032v-3.095h1.032v3.095zM19.596 15.475h-1.032v-3.095h1.032v3.095zM17.533 15.475h-0.516c-0.068 0-0.134-0.014-0.197-0.039s-0.118-0.063-0.167-0.111c-0.048-0.048-0.086-0.105-0.113-0.168-0.026-0.063-0.039-0.128-0.038-0.197v-2.063c0-0.069 0.012-0.134 0.038-0.197 0.027-0.063 0.064-0.119 0.113-0.168s0.104-0.086 0.167-0.111c0.063-0.026 0.13-0.039 0.197-0.039h0.516v3.095zM17.533 19.6h11.346v8.251h-11.346v-8.251zM17.533 18.569v-2.062h11.346v2.062h-11.346zM26.815 15.475v-3.095h1.032v3.095h-1.032zM4.125 1.552c0-0.069 0.013-0.134 0.039-0.198 0.026-0.063 0.063-0.118 0.111-0.167s0.105-0.086 0.168-0.111c0.063-0.027 0.128-0.039 0.197-0.039h9.283c0.069 0 0.134 0.012 0.197 0.039 0.063 0.026 0.119 0.063 0.168 0.111s0.086 0.104 0.111 0.167c0.026 0.064 0.039 0.129 0.039 0.198v2.062c0 0.069-0.014 0.135-0.039 0.198s-0.063 0.118-0.111 0.167c-0.048 0.048-0.105 0.086-0.168 0.113-0.063 0.026-0.128 0.038-0.197 0.038h-9.283c-0.069 0-0.134-0.012-0.197-0.038-0.063-0.027-0.119-0.064-0.168-0.113s-0.086-0.104-0.111-0.167c-0.026-0.063-0.039-0.13-0.039-0.198v-2.062zM4.766 6.693c0.115-0.028 0.209-0.089 0.282-0.182 0.073-0.093 0.109-0.199 0.109-0.318v-1.032h8.251v1.032c0 0.118 0.036 0.224 0.109 0.318 0.072 0.093 0.167 0.154 0.282 0.182 0.259 0.065 0.512 0.15 0.758 0.257 0.245 0.106 0.481 0.231 0.707 0.375 0.225 0.144 0.437 0.306 0.636 0.485s0.382 0.373 0.55 0.582c0.167 0.208 0.316 0.429 0.448 0.663 0.131 0.233 0.242 0.475 0.334 0.726 0.091 0.252 0.162 0.509 0.212 0.773 0.050 0.262 0.078 0.528 0.084 0.795h-0.511c-0.101 0-0.202 0.010-0.302 0.030-0.099 0.019-0.196 0.048-0.289 0.088-0.095 0.038-0.184 0.087-0.268 0.143s-0.162 0.12-0.234 0.193c-0.072 0.071-0.136 0.15-0.193 0.234s-0.104 0.173-0.143 0.267c-0.038 0.095-0.068 0.191-0.088 0.291-0.020 0.1-0.029 0.2-0.029 0.302h-14.439v-1.42c-0.001-0.274 0.021-0.544 0.066-0.814 0.045-0.269 0.111-0.533 0.2-0.791 0.089-0.259 0.198-0.508 0.329-0.748 0.129-0.24 0.279-0.468 0.447-0.684s0.353-0.414 0.554-0.599c0.202-0.185 0.417-0.351 0.645-0.5 0.23-0.149 0.468-0.277 0.72-0.386 0.25-0.109 0.508-0.196 0.773-0.262zM2.578 30.946c-0.101 0-0.202-0.010-0.302-0.030-0.099-0.019-0.196-0.050-0.289-0.088-0.095-0.039-0.184-0.087-0.268-0.143s-0.162-0.12-0.234-0.193c-0.072-0.072-0.136-0.15-0.193-0.234s-0.104-0.173-0.143-0.268c-0.038-0.093-0.068-0.19-0.088-0.289-0.019-0.1-0.029-0.2-0.029-0.302v-2.063h15.471v2.063c0.002 0.456 0.119 0.882 0.35 1.275-0.261 0.179-0.55 0.27-0.866 0.272h-13.409zM27.331 30.946h-8.251c-0.101 0-0.202-0.010-0.302-0.030-0.099-0.019-0.196-0.050-0.291-0.088-0.093-0.039-0.182-0.087-0.267-0.143s-0.162-0.12-0.234-0.193c-0.072-0.072-0.136-0.15-0.193-0.234s-0.105-0.173-0.143-0.268c-0.039-0.093-0.069-0.19-0.088-0.289-0.020-0.1-0.030-0.2-0.030-0.302v-0.516h11.346v0.516c0 0.101-0.010 0.201-0.030 0.302-0.019 0.099-0.048 0.196-0.088 0.289-0.038 0.095-0.087 0.184-0.143 0.268s-0.12 0.162-0.192 0.234c-0.071 0.072-0.15 0.136-0.234 0.193s-0.173 0.104-0.267 0.143c-0.095 0.038-0.192 0.069-0.291 0.088-0.1 0.020-0.2 0.030-0.302 0.030zM29.91 14.96c0 0.069-0.013 0.134-0.039 0.197-0.027 0.063-0.064 0.119-0.113 0.168-0.047 0.048-0.104 0.086-0.167 0.111s-0.13 0.039-0.197 0.039h-0.516v-3.095h0.516c0.067 0 0.134 0.014 0.197 0.039s0.119 0.063 0.167 0.111c0.048 0.048 0.086 0.105 0.113 0.168 0.026 0.063 0.039 0.128 0.039 0.197v2.063z"></path>
<path fill="#160a58" d="M25.784 22.179h-1.032v-1.032c0-0.069-0.012-0.134-0.039-0.197-0.026-0.063-0.063-0.119-0.112-0.168s-0.104-0.086-0.167-0.111c-0.063-0.026-0.13-0.039-0.198-0.039h-2.062c-0.069 0-0.134 0.014-0.198 0.039s-0.118 0.063-0.167 0.111-0.086 0.105-0.112 0.168c-0.027 0.063-0.039 0.128-0.039 0.197v1.032h-1.032c-0.069 0-0.134 0.012-0.197 0.039-0.063 0.026-0.119 0.063-0.168 0.112s-0.086 0.104-0.111 0.167c-0.026 0.064-0.039 0.13-0.039 0.198v2.062c0 0.069 0.014 0.135 0.039 0.198s0.063 0.118 0.111 0.167c0.048 0.048 0.105 0.085 0.168 0.111 0.063 0.027 0.128 0.039 0.197 0.039h1.032v1.032c0 0.069 0.012 0.134 0.039 0.197 0.026 0.064 0.063 0.119 0.112 0.168s0.104 0.086 0.167 0.111c0.064 0.027 0.13 0.040 0.198 0.040h2.062c0.069 0 0.135-0.013 0.198-0.040 0.063-0.026 0.118-0.063 0.167-0.111s0.086-0.104 0.112-0.168c0.027-0.063 0.039-0.128 0.039-0.197v-1.032h1.032c0.069 0 0.134-0.012 0.197-0.039 0.064-0.026 0.12-0.063 0.168-0.111s0.085-0.104 0.111-0.167c0.026-0.063 0.039-0.13 0.039-0.198v-2.062c0-0.069-0.013-0.134-0.039-0.198-0.026-0.063-0.063-0.118-0.111-0.167s-0.104-0.086-0.168-0.112c-0.063-0.027-0.128-0.039-0.197-0.039zM25.268 24.241h-1.032c-0.068 0-0.134 0.013-0.197 0.039-0.063 0.027-0.118 0.064-0.167 0.113s-0.085 0.104-0.112 0.167c-0.026 0.063-0.040 0.13-0.040 0.197v1.032h-1.030v-1.032c0-0.067-0.014-0.134-0.040-0.197s-0.064-0.118-0.112-0.167c-0.047-0.048-0.104-0.086-0.167-0.113-0.063-0.026-0.13-0.039-0.197-0.039h-1.031v-1.030h1.031c0.068 0 0.134-0.014 0.197-0.039s0.119-0.064 0.167-0.112c0.048-0.048 0.087-0.105 0.112-0.168s0.040-0.13 0.040-0.197v-1.032h1.030v1.032c0 0.067 0.014 0.134 0.040 0.197 0.027 0.063 0.064 0.119 0.112 0.168 0.048 0.047 0.104 0.086 0.167 0.112s0.13 0.039 0.197 0.039h1.032v1.030z"></path>
</svg>
