<svg width="143" height="148" viewBox="0 0 143 148" fill="none" xmlns="http://www.w3.org/2000/svg">
<path d="M35.7759 88.2656C39.7863 88.2656 42.9321 84.0781 42.9321 78.7292C42.9321 73.375 39.7863 69.1875 35.7759 69.1875C31.7655 69.1875 28.6196 73.375 28.6196 78.7292C28.6196 84.0781 31.7655 88.2656 35.7759 88.2656ZM35.7759 73.9583C36.7498 73.9583 38.1613 75.8125 38.1613 78.7292C38.1613 81.6406 36.7498 83.4948 35.7759 83.4948C34.8019 83.4948 33.3905 81.6406 33.3905 78.7292C33.3905 75.8125 34.8019 73.9583 35.7759 73.9583Z" fill="#160A58"/>
<path d="M62.0101 83.4946C57.9997 83.4946 54.8538 87.6873 54.8538 93.0363C54.8643 93.4946 54.8955 93.953 54.9528 94.4061C53.4841 92.5728 51.6976 91.1196 49.5986 90.0467C47.5049 88.979 45.2809 88.3853 42.932 88.2655C40.5778 88.3853 38.3538 88.979 36.2601 90.0467C34.1611 91.1196 32.3747 92.5728 30.9059 94.4061C30.9632 93.953 30.9945 93.4946 31.0049 93.0363C31.0049 87.6873 27.859 83.4946 23.8486 83.4946C19.8382 83.4946 16.6924 87.6873 16.6924 93.0363C16.6924 98.3853 19.8382 102.578 23.8486 102.578C24.8851 102.573 25.8538 102.307 26.7445 101.776C26.4268 102.818 26.2549 103.875 26.234 104.963C26.234 111.64 33.5674 116.885 42.932 116.885C52.2913 116.885 59.6247 111.64 59.6247 104.963C59.6038 103.875 59.432 102.812 59.1143 101.776C60.0049 102.302 60.9736 102.573 62.0101 102.578C66.0205 102.578 69.1663 98.3853 69.1663 93.0363C69.1663 87.6873 66.0205 83.4946 62.0101 83.4946ZM23.8486 97.8071C22.8747 97.8071 21.4632 95.9478 21.4632 93.0363C21.4632 90.1248 22.8747 88.2655 23.8486 88.2655C24.8226 88.2655 26.234 90.1248 26.234 93.0363C26.234 95.9478 24.8226 97.8071 23.8486 97.8071ZM42.932 112.114C36.4684 112.114 31.0049 108.838 31.0049 104.963C31.0049 100.932 36.4059 93.0363 42.932 93.0363C49.4528 93.0363 54.8538 100.937 54.8538 104.963C54.8538 108.844 49.3955 112.114 42.932 112.114ZM62.0101 97.8071C61.0361 97.8071 59.6247 95.9478 59.6247 93.0363C59.6247 90.1248 61.0361 88.2655 62.0101 88.2655C62.9841 88.2655 64.3955 90.1248 64.3955 93.0363C64.3955 95.9478 62.9841 97.8071 62.0101 97.8071Z" fill="#160A58"/>
<path d="M50.0832 88.2656C54.0988 88.2656 57.2394 84.0781 57.2394 78.7292C57.2394 73.375 54.0988 69.1875 50.0832 69.1875C46.0728 69.1875 42.9321 73.375 42.9321 78.7292C42.9321 84.0781 46.0728 88.2656 50.0832 88.2656ZM50.0832 73.9583C51.0571 73.9583 52.4686 75.8125 52.4686 78.7292C52.4686 81.6406 51.0571 83.4948 50.0832 83.4948C49.1092 83.4948 47.6978 81.6406 47.6978 78.7292C47.6978 75.8125 49.1092 73.9583 50.0832 73.9583Z" fill="#160A58"/>
<mask id="mask0_1794_11883" style="mask-type:luminance" maskUnits="userSpaceOnUse" x="0" y="0" width="143" height="148">
<path d="M0 0H142.927V147.927H0V0Z" fill="white"/>
</mask>
<g mask="url(#mask0_1794_11883)">
<path d="M135.948 52.4897H85.8385C85.8073 51.0679 85.6719 49.6564 85.4219 48.2554C85.1771 46.8543 84.8229 45.4793 84.3646 44.1304C83.901 42.7866 83.3385 41.4793 82.6771 40.2241C82.0156 38.9637 81.2604 37.7606 80.4115 36.62C79.5625 35.4741 78.6302 34.4064 77.6146 33.4064C76.599 32.4116 75.5156 31.495 74.3594 30.6668C73.2031 29.8387 71.9896 29.1043 70.7188 28.4637C69.4479 27.8179 68.1354 27.2814 66.7812 26.8439V23.4325C67.474 23.1877 68.1146 22.8439 68.7031 22.396C69.2917 21.9533 69.8021 21.4325 70.2292 20.8283C70.6562 20.2293 70.9844 19.5783 71.2083 18.8752C71.4323 18.172 71.5469 17.4533 71.5521 16.7137V7.17725C71.5521 6.7085 71.5052 6.23975 71.4115 5.78141C71.3229 5.31787 71.1875 4.86996 71.0052 4.43766C70.8281 4.00537 70.6042 3.59391 70.3438 3.19808C70.0833 2.80745 69.7865 2.44808 69.4531 2.11475C69.1198 1.78662 68.7604 1.48975 68.3698 1.22412C67.9792 0.963704 67.5677 0.744955 67.1354 0.567871C66.6979 0.385579 66.25 0.250162 65.7917 0.156413C65.3281 0.0678701 64.8646 0.0209961 64.3958 0.0209961H21.4635C20.9948 0.0209961 20.5312 0.0678701 20.0677 0.156413C19.6094 0.250162 19.1615 0.385579 18.724 0.567871C18.2917 0.744955 17.8802 0.963704 17.4896 1.22412C17.099 1.48975 16.7396 1.78662 16.4062 2.11475C16.0729 2.44808 15.776 2.80745 15.5156 3.20329C15.2552 3.59391 15.0365 4.00537 14.8542 4.43766C14.6719 4.86996 14.5365 5.31787 14.4479 5.78141C14.3542 6.23975 14.3073 6.7085 14.3073 7.17725V16.7137C14.3125 17.4533 14.4271 18.172 14.651 18.8752C14.8802 19.5783 15.2031 20.2293 15.6302 20.8283C16.0573 21.4325 16.5677 21.9533 17.1562 22.396C17.7448 22.8439 18.3854 23.1877 19.0781 23.4325V26.8439C17.7031 27.2866 16.3646 27.8387 15.0729 28.495C13.7812 29.1512 12.5521 29.9012 11.3802 30.7502C10.2031 31.5991 9.10417 32.5366 8.08333 33.5627C7.05729 34.5835 6.11979 35.6825 5.26562 36.8543C4.41667 38.0262 3.66146 39.2554 3 40.547C2.34375 41.8335 1.79167 43.172 1.34375 44.547C0.895834 45.9272 0.5625 47.3283 0.333333 48.7606C0.109375 50.1929 0 51.6304 0 53.0783V135.969C0 136.75 0.078124 137.526 0.229167 138.292C0.385416 139.063 0.609376 139.807 0.911458 140.531C1.20833 141.25 1.57812 141.938 2.01562 142.589C2.44792 143.24 2.94271 143.844 3.49479 144.396C4.05208 144.948 4.65104 145.443 5.30208 145.88C5.95312 146.313 6.64063 146.682 7.36458 146.979C8.08854 147.281 8.83333 147.505 9.59896 147.662C10.3646 147.813 11.1406 147.891 11.9219 147.891H73.9375C76.6042 147.891 79 147.083 81.125 145.474C83.2292 147.078 85.599 147.886 88.2448 147.891H126.406C127.188 147.891 127.964 147.813 128.729 147.662C129.5 147.505 130.245 147.281 130.969 146.979C131.693 146.682 132.375 146.313 133.026 145.88C133.677 145.443 134.281 144.948 134.833 144.396C135.385 143.844 135.88 143.24 136.318 142.589C136.75 141.938 137.12 141.25 137.422 140.531C137.719 139.807 137.948 139.063 138.099 138.292C138.255 137.526 138.328 136.75 138.333 135.969V75.9012C139.026 75.6564 139.667 75.3127 140.255 74.87C140.844 74.422 141.354 73.9012 141.781 73.3022C142.208 72.6981 142.531 72.047 142.76 71.3439C142.984 70.646 143.099 69.922 143.099 69.1877V59.646C143.099 59.1772 143.057 58.7137 142.964 58.2502C142.87 57.7918 142.734 57.3439 142.557 56.9064C142.375 56.4741 142.156 56.0627 141.896 55.672C141.635 55.2814 141.339 54.9168 141.005 54.5887C140.672 54.2554 140.312 53.9585 139.922 53.6981C139.531 53.4377 139.12 53.2137 138.682 53.0366C138.25 52.8543 137.802 52.7189 137.344 52.6304C136.88 52.5366 136.417 52.4897 135.948 52.4897ZM76.3229 75.9012V121.656H4.77083V64.4168H71.5521V69.1877C71.5521 69.922 71.6667 70.646 71.8906 71.3439C72.1198 72.047 72.4427 72.6981 72.8698 73.3022C73.2969 73.9012 73.8073 74.422 74.3958 74.87C74.9844 75.3127 75.625 75.6564 76.3229 75.9012ZM114.479 71.5731V57.2606H119.25V71.5731H114.479ZM109.708 71.5731H104.943V57.2606H109.708V71.5731ZM100.172 71.5731H95.401V57.2606H100.172V71.5731ZM90.6302 71.5731H85.8594V57.2606H90.6302V71.5731ZM81.0885 71.5731H78.7031C78.3906 71.5731 78.0833 71.5106 77.7917 71.3908C77.5 71.271 77.2448 71.0991 77.0208 70.8752C76.7969 70.6512 76.625 70.3908 76.5 70.0991C76.3802 69.8075 76.3177 69.5054 76.3229 69.1877V59.646C76.3229 59.3283 76.3802 59.0262 76.5 58.7345C76.625 58.4429 76.7969 58.1825 77.0208 57.9585C77.2448 57.7345 77.5 57.5627 77.7917 57.4429C78.0833 57.3231 78.3906 57.2606 78.7031 57.2606H81.0885V71.5731ZM81.0885 90.6512H133.562V128.813H81.0885V90.6512ZM81.0885 85.8804V76.3439H133.562V85.8804H81.0885ZM124.021 71.5731V57.2606H128.792V71.5731H124.021ZM19.0781 7.17725C19.0781 6.85954 19.1406 6.55746 19.2604 6.26058C19.3802 5.96891 19.5521 5.7137 19.776 5.48975C20 5.26579 20.2604 5.09391 20.5521 4.97412C20.8438 4.84912 21.1458 4.79183 21.4635 4.79183H64.3958C64.7135 4.79183 65.0156 4.84912 65.3073 4.97412C65.599 5.09391 65.8594 5.26579 66.0833 5.48975C66.3073 5.7137 66.4792 5.96891 66.599 6.26058C66.7188 6.55746 66.7812 6.85954 66.7812 7.17725V16.7137C66.7812 17.0314 66.7188 17.3387 66.599 17.6304C66.4792 17.922 66.3073 18.1772 66.0833 18.4012C65.8594 18.6252 65.599 18.797 65.3073 18.922C65.0156 19.0418 64.7135 19.0991 64.3958 19.0991H21.4635C21.1458 19.0991 20.8438 19.0418 20.5521 18.922C20.2604 18.797 20 18.6252 19.776 18.4012C19.5521 18.1772 19.3802 17.922 19.2604 17.6304C19.1406 17.3387 19.0781 17.0314 19.0781 16.7137V7.17725ZM22.0417 30.9533C22.5729 30.8231 23.0104 30.5418 23.3438 30.1095C23.6823 29.6772 23.849 29.1877 23.849 28.6408V23.87H62.0104V28.6408C62.0104 29.1877 62.1771 29.6772 62.5156 30.1095C62.849 30.5418 63.2865 30.8231 63.8177 30.9533C65.0156 31.2554 66.1875 31.646 67.3229 32.1408C68.4583 32.6304 69.5469 33.2085 70.5938 33.8752C71.6354 34.5418 72.6146 35.2918 73.5365 36.12C74.4583 36.9481 75.3021 37.8439 76.0781 38.8127C76.849 39.7762 77.5417 40.797 78.151 41.8804C78.7552 42.9585 79.2708 44.0783 79.6979 45.2397C80.1198 46.4064 80.4479 47.5939 80.6771 48.8127C80.9062 50.0262 81.0365 51.2554 81.0677 52.4897H78.7031C78.2344 52.4897 77.7708 52.5366 77.3073 52.6304C76.849 52.7189 76.401 52.8543 75.9688 53.0366C75.5312 53.2137 75.1198 53.4377 74.7292 53.6981C74.3385 53.9585 73.9792 54.2554 73.6458 54.5887C73.3125 54.9168 73.0156 55.2814 72.7552 55.672C72.4948 56.0627 72.276 56.4741 72.0938 56.9064C71.9167 57.3439 71.7812 57.7918 71.6875 58.2502C71.5938 58.7137 71.5521 59.1772 71.5521 59.646H4.77083V53.0783C4.76563 51.8127 4.86979 50.5627 5.07812 49.3127C5.28646 48.0679 5.59375 46.8491 6.00521 45.6564C6.41667 44.4585 6.92188 43.3075 7.52604 42.1981C8.125 41.0887 8.81771 40.0314 9.59375 39.0366C10.3698 38.0418 11.224 37.12 12.1562 36.2658C13.0885 35.4116 14.0833 34.6408 15.1406 33.9533C16.2031 33.2658 17.3073 32.672 18.4688 32.1668C19.625 31.6616 20.8177 31.2606 22.0417 30.9533ZM11.9219 143.125C11.4531 143.125 10.9896 143.078 10.526 142.985C10.0677 142.896 9.61979 142.755 9.1875 142.578C8.75 142.396 8.33854 142.177 7.94792 141.917C7.55729 141.656 7.19792 141.36 6.86458 141.026C6.53125 140.693 6.23437 140.333 5.97396 139.943C5.71354 139.552 5.49479 139.141 5.3125 138.703C5.13542 138.271 5 137.823 4.90625 137.365C4.81771 136.901 4.77083 136.438 4.77083 135.969V126.427H76.3229V135.969C76.3333 138.078 76.875 140.047 77.9427 141.865C76.7344 142.693 75.401 143.115 73.9375 143.125H11.9219ZM126.406 143.125H88.2448C87.776 143.125 87.3125 143.078 86.849 142.985C86.3906 142.896 85.9427 142.755 85.5052 142.578C85.0729 142.396 84.6615 142.177 84.2708 141.917C83.8802 141.656 83.5208 141.36 83.1875 141.026C82.8542 140.693 82.5573 140.333 82.2969 139.943C82.0365 139.552 81.8125 139.141 81.6354 138.703C81.4531 138.271 81.3177 137.823 81.2292 137.365C81.1354 136.901 81.0885 136.438 81.0885 135.969V133.583H133.562V135.969C133.562 136.438 133.516 136.901 133.422 137.365C133.333 137.823 133.198 138.271 133.016 138.703C132.839 139.141 132.615 139.552 132.354 139.943C132.094 140.333 131.797 140.693 131.464 141.026C131.135 141.36 130.771 141.656 130.38 141.917C129.99 142.177 129.578 142.396 129.146 142.578C128.708 142.755 128.26 142.896 127.802 142.985C127.339 143.078 126.875 143.125 126.406 143.125ZM138.333 69.1877C138.333 69.5054 138.271 69.8075 138.151 70.0991C138.026 70.3908 137.854 70.6512 137.63 70.8752C137.411 71.0991 137.151 71.271 136.859 71.3908C136.568 71.5106 136.26 71.5731 135.948 71.5731H133.562V57.2606H135.948C136.26 57.2606 136.568 57.3231 136.859 57.4429C137.151 57.5627 137.411 57.7345 137.63 57.9585C137.854 58.1825 138.026 58.4429 138.151 58.7345C138.271 59.0262 138.333 59.3283 138.333 59.646V69.1877Z" fill="#160A58"/>
</g>
<path d="M119.25 102.578H114.479V97.8073C114.479 97.4896 114.422 97.1875 114.297 96.8958C114.177 96.6042 114.005 96.3437 113.781 96.1198C113.557 95.8958 113.302 95.724 113.01 95.6042C112.719 95.4844 112.411 95.4219 112.094 95.4219H102.557C102.24 95.4219 101.938 95.4844 101.641 95.6042C101.349 95.724 101.094 95.8958 100.87 96.1198C100.646 96.3437 100.474 96.6042 100.354 96.8958C100.229 97.1875 100.172 97.4896 100.172 97.8073V102.578H95.401C95.0833 102.578 94.7812 102.635 94.4896 102.76C94.1979 102.88 93.9375 103.052 93.7135 103.276C93.4896 103.5 93.3177 103.755 93.1979 104.047C93.0781 104.344 93.0156 104.646 93.0156 104.964V114.5C93.0156 114.818 93.0781 115.125 93.1979 115.417C93.3177 115.708 93.4896 115.964 93.7135 116.188C93.9375 116.411 94.1979 116.583 94.4896 116.703C94.7812 116.828 95.0833 116.885 95.401 116.885H100.172V121.656C100.172 121.974 100.229 122.276 100.354 122.568C100.474 122.865 100.646 123.12 100.87 123.344C101.094 123.568 101.349 123.74 101.641 123.859C101.938 123.984 102.24 124.042 102.557 124.042H112.094C112.411 124.042 112.719 123.984 113.01 123.859C113.302 123.74 113.557 123.568 113.781 123.344C114.005 123.12 114.177 122.865 114.297 122.568C114.422 122.276 114.479 121.974 114.479 121.656V116.885H119.25C119.568 116.885 119.87 116.828 120.161 116.703C120.458 116.583 120.714 116.411 120.938 116.188C121.161 115.964 121.333 115.708 121.453 115.417C121.573 115.125 121.635 114.818 121.635 114.5V104.964C121.635 104.646 121.573 104.344 121.453 104.047C121.333 103.755 121.161 103.5 120.938 103.276C120.714 103.052 120.458 102.88 120.161 102.76C119.87 102.635 119.568 102.578 119.25 102.578ZM116.865 112.115H112.094C111.781 112.115 111.474 112.177 111.182 112.297C110.891 112.422 110.635 112.594 110.411 112.818C110.188 113.042 110.016 113.297 109.891 113.589C109.771 113.88 109.708 114.188 109.708 114.5V119.271H104.943V114.5C104.943 114.188 104.88 113.88 104.76 113.589C104.641 113.297 104.464 113.042 104.24 112.818C104.021 112.594 103.76 112.422 103.469 112.297C103.177 112.177 102.87 112.115 102.557 112.115H97.7865V107.349H102.557C102.87 107.349 103.177 107.286 103.469 107.167C103.76 107.047 104.021 106.87 104.24 106.651C104.464 106.427 104.641 106.167 104.76 105.875C104.88 105.583 104.943 105.276 104.943 104.964V100.193H109.708V104.964C109.708 105.276 109.771 105.583 109.891 105.875C110.016 106.167 110.188 106.427 110.411 106.651C110.635 106.87 110.891 107.047 111.182 107.167C111.474 107.286 111.781 107.349 112.094 107.349H116.865V112.115Z" fill="#160A58"/>
</svg>
