<svg aria-hidden="true" style="position: absolute; width: 0; height: 0; overflow: hidden;" version="1.1" xmlns="http://www.w3.org/2000/svg" xmlns:xlink="http://www.w3.org/1999/xlink">
<defs>
<symbol id="Attention" viewBox="0 0 36 32">
<path fill="#160a58" style="fill: var(--color1, #160a58)" d="M4.652 31.938h25.938c2.866 0 4.652-2.057 4.652-4.652 0-0.775-0.202-1.568-0.623-2.292l-12.994-22.635c-0.877-1.534-2.41-2.359-3.995-2.359-1.568 0-3.118 0.826-4.012 2.359l-12.994 22.652c-0.407 0.689-0.622 1.475-0.623 2.275 0 2.596 1.804 4.652 4.652 4.652zM4.686 29.292c-1.18 0-1.956-0.961-1.956-2.006 0-0.303 0.051-0.657 0.22-1.011l12.977-22.635c0.371-0.64 1.046-0.943 1.703-0.943s1.297 0.286 1.668 0.943l12.978 22.652c0.168 0.338 0.252 0.691 0.252 0.995 0 1.045-0.809 2.006-1.972 2.006l-25.87-0.001zM17.629 20.579c0.809 0 1.28-0.472 1.297-1.348l0.236-8.882c0.017-0.86-0.657-1.5-1.55-1.5-0.91 0-1.55 0.623-1.534 1.483l0.219 8.899c0.017 0.86 0.489 1.348 1.332 1.348zM17.629 26.056c0.977 0 1.819-0.775 1.819-1.752 0-0.995-0.826-1.753-1.819-1.753s-1.821 0.775-1.821 1.753c0 0.961 0.843 1.752 1.821 1.752z"></path>
</symbol>
<symbol id="Impotrant" viewBox="0 0 32 32">
<path fill="#160a58" style="fill: var(--color1, #160a58)" d="M15.937 31.875c8.703 0 15.937-7.219 15.937-15.937 0-8.703-7.25-15.937-15.953-15.937-8.718 0-15.921 7.234-15.921 15.937 0 8.719 7.218 15.937 15.937 15.937zM15.937 29.219c-7.376 0-13.267-5.907-13.267-13.281 0-7.36 5.875-13.281 13.251-13.281 7.359 0 13.281 5.922 13.297 13.281 0.015 7.375-5.922 13.281-13.281 13.281zM15.921 18.765c0.749 0 1.171-0.422 1.187-1.234l0.235-8.25c0.016-0.797-0.609-1.391-1.437-1.391-0.844 0-1.437 0.578-1.422 1.375l0.203 8.266c0.015 0.797 0.453 1.234 1.235 1.234zM15.921 23.843c0.89 0 1.687-0.719 1.687-1.625 0-0.922-0.781-1.625-1.687-1.625-0.922 0-1.688 0.719-1.688 1.625 0 0.891 0.781 1.625 1.688 1.625z"></path>
</symbol>
<symbol id="Tablets" viewBox="0 0 31 32">
<path fill="#160a58" style="fill: var(--color1, #160a58)" d="M7.735 19.084c0.867 0 1.547-0.905 1.547-2.062 0-1.158-0.68-2.063-1.547-2.063s-1.547 0.905-1.547 2.063c0 1.157 0.68 2.062 1.547 2.062zM7.735 15.991c0.211 0 0.516 0.401 0.516 1.032 0 0.63-0.305 1.030-0.516 1.030s-0.516-0.401-0.516-1.030c0-0.631 0.305-1.032 0.516-1.032z"></path>
<path fill="#160a58" style="fill: var(--color1, #160a58)" d="M13.408 18.053c-0.867 0-1.547 0.907-1.547 2.063 0.002 0.099 0.009 0.198 0.021 0.296-0.318-0.396-0.704-0.711-1.158-0.943-0.453-0.231-0.934-0.359-1.441-0.385-0.509 0.026-0.99 0.154-1.443 0.385-0.454 0.232-0.84 0.546-1.158 0.943 0.012-0.098 0.019-0.197 0.021-0.296 0-1.157-0.68-2.063-1.547-2.063s-1.547 0.907-1.547 2.063c0 1.157 0.68 2.063 1.547 2.063 0.224-0.001 0.434-0.059 0.626-0.173-0.069 0.225-0.106 0.454-0.11 0.689 0 1.444 1.586 2.578 3.61 2.578 2.024 0 3.609-1.134 3.609-2.578-0.005-0.235-0.042-0.465-0.11-0.689 0.193 0.114 0.402 0.172 0.626 0.173 0.867 0 1.547-0.907 1.547-2.063s-0.68-2.063-1.547-2.063zM5.156 21.147c-0.211 0-0.516-0.402-0.516-1.032s0.305-1.032 0.516-1.032c0.211 0 0.516 0.402 0.516 1.032s-0.305 1.032-0.516 1.032zM9.283 24.241c-1.398 0-2.579-0.708-2.579-1.546 0-0.872 1.168-2.579 2.579-2.579 1.41 0 2.578 1.708 2.578 2.579 0 0.839-1.18 1.546-2.578 1.546zM13.408 21.147c-0.211 0-0.516-0.402-0.516-1.032s0.305-1.032 0.516-1.032c0.211 0 0.516 0.402 0.516 1.032s-0.305 1.032-0.516 1.032z"></path>
<path fill="#160a58" style="fill: var(--color1, #160a58)" d="M10.829 19.084c0.868 0 1.547-0.905 1.547-2.062 0-1.158-0.679-2.063-1.547-2.063-0.867 0-1.546 0.905-1.546 2.063 0 1.157 0.679 2.062 1.546 2.062zM10.829 15.991c0.211 0 0.516 0.401 0.516 1.032 0 0.63-0.305 1.030-0.516 1.030s-0.516-0.401-0.516-1.030c0-0.631 0.305-1.032 0.516-1.032z"></path>
<path fill="#160a58" style="fill: var(--color1, #160a58)" d="M29.394 11.349h-10.834c-0.007-0.307-0.036-0.613-0.090-0.916-0.053-0.303-0.13-0.6-0.229-0.892-0.1-0.291-0.222-0.573-0.365-0.845-0.143-0.273-0.306-0.533-0.49-0.779-0.184-0.248-0.385-0.479-0.605-0.695-0.22-0.215-0.454-0.413-0.704-0.592s-0.512-0.338-0.787-0.476c-0.275-0.14-0.559-0.256-0.851-0.35v-0.738c0.15-0.053 0.288-0.127 0.416-0.224 0.127-0.096 0.238-0.208 0.33-0.339 0.092-0.13 0.163-0.27 0.212-0.422s0.073-0.307 0.074-0.467v-2.062c0-0.101-0.010-0.203-0.030-0.302-0.019-0.1-0.048-0.197-0.088-0.291-0.038-0.093-0.087-0.182-0.143-0.268-0.056-0.084-0.12-0.162-0.193-0.234-0.072-0.071-0.15-0.135-0.234-0.193-0.084-0.056-0.173-0.104-0.267-0.142-0.095-0.039-0.191-0.069-0.291-0.089-0.1-0.019-0.2-0.029-0.302-0.029h-9.283c-0.101 0-0.202 0.010-0.302 0.029-0.099 0.020-0.196 0.050-0.291 0.089-0.093 0.038-0.182 0.086-0.267 0.142-0.084 0.057-0.162 0.122-0.234 0.193-0.072 0.072-0.136 0.15-0.193 0.235-0.056 0.084-0.104 0.173-0.143 0.267s-0.069 0.19-0.088 0.291c-0.020 0.099-0.030 0.2-0.030 0.302v2.062c0.001 0.16 0.026 0.315 0.074 0.467 0.050 0.152 0.119 0.293 0.212 0.422 0.092 0.131 0.203 0.243 0.33 0.339 0.127 0.097 0.266 0.171 0.416 0.224v0.738c-0.297 0.096-0.587 0.215-0.866 0.357s-0.545 0.304-0.798 0.488c-0.255 0.184-0.492 0.386-0.713 0.608-0.222 0.221-0.425 0.458-0.609 0.712-0.184 0.253-0.347 0.519-0.49 0.798-0.142 0.278-0.261 0.568-0.358 0.865-0.097 0.298-0.169 0.601-0.218 0.911-0.048 0.31-0.072 0.62-0.072 0.934v17.922c0 0.169 0.017 0.337 0.050 0.502 0.034 0.167 0.082 0.328 0.148 0.484 0.064 0.155 0.144 0.304 0.239 0.445 0.093 0.141 0.2 0.271 0.32 0.391 0.12 0.119 0.25 0.226 0.391 0.321s0.289 0.173 0.446 0.238c0.157 0.065 0.318 0.114 0.483 0.148 0.166 0.033 0.333 0.049 0.502 0.049h13.409c0.577 0 1.095-0.174 1.554-0.523 0.455 0.347 0.967 0.521 1.539 0.523h8.251c0.169 0 0.337-0.017 0.502-0.049 0.167-0.034 0.328-0.082 0.484-0.148 0.157-0.064 0.304-0.144 0.445-0.238s0.271-0.201 0.391-0.321 0.226-0.25 0.321-0.391c0.093-0.141 0.173-0.29 0.239-0.445 0.064-0.157 0.114-0.317 0.146-0.484 0.034-0.166 0.049-0.333 0.051-0.502v-12.988c0.15-0.053 0.288-0.127 0.416-0.223 0.127-0.097 0.238-0.209 0.33-0.339 0.092-0.131 0.162-0.271 0.212-0.423 0.048-0.151 0.073-0.307 0.073-0.466v-2.063c0-0.101-0.009-0.202-0.029-0.302-0.020-0.099-0.050-0.196-0.088-0.291-0.039-0.093-0.087-0.182-0.143-0.267s-0.12-0.163-0.193-0.234c-0.072-0.072-0.15-0.136-0.234-0.193s-0.173-0.105-0.268-0.143c-0.093-0.039-0.19-0.069-0.289-0.088-0.1-0.020-0.2-0.030-0.302-0.030zM16.502 16.411v9.893h-15.471v-12.376h14.439v1.032c0 0.159 0.025 0.315 0.073 0.466 0.050 0.152 0.119 0.293 0.212 0.423 0.092 0.13 0.203 0.242 0.33 0.339 0.127 0.096 0.266 0.17 0.417 0.223zM24.752 15.475v-3.095h1.032v3.095h-1.032zM23.721 15.475h-1.030v-3.095h1.030v3.095zM21.659 15.475h-1.032v-3.095h1.032v3.095zM19.596 15.475h-1.032v-3.095h1.032v3.095zM17.533 15.475h-0.516c-0.068 0-0.134-0.014-0.197-0.039s-0.118-0.063-0.167-0.111c-0.048-0.048-0.086-0.105-0.113-0.168-0.026-0.063-0.039-0.128-0.038-0.197v-2.063c0-0.069 0.012-0.134 0.038-0.197 0.027-0.063 0.064-0.119 0.113-0.168s0.104-0.086 0.167-0.111c0.063-0.026 0.13-0.039 0.197-0.039h0.516v3.095zM17.533 19.6h11.346v8.251h-11.346v-8.251zM17.533 18.569v-2.062h11.346v2.062h-11.346zM26.815 15.475v-3.095h1.032v3.095h-1.032zM4.125 1.552c0-0.069 0.013-0.134 0.039-0.198 0.026-0.063 0.063-0.118 0.111-0.167s0.105-0.086 0.168-0.111c0.063-0.027 0.128-0.039 0.197-0.039h9.283c0.069 0 0.134 0.012 0.197 0.039 0.063 0.026 0.119 0.063 0.168 0.111s0.086 0.104 0.111 0.167c0.026 0.064 0.039 0.129 0.039 0.198v2.062c0 0.069-0.014 0.135-0.039 0.198s-0.063 0.118-0.111 0.167c-0.048 0.048-0.105 0.086-0.168 0.113-0.063 0.026-0.128 0.038-0.197 0.038h-9.283c-0.069 0-0.134-0.012-0.197-0.038-0.063-0.027-0.119-0.064-0.168-0.113s-0.086-0.104-0.111-0.167c-0.026-0.063-0.039-0.13-0.039-0.198v-2.062zM4.766 6.693c0.115-0.028 0.209-0.089 0.282-0.182 0.073-0.093 0.109-0.199 0.109-0.318v-1.032h8.251v1.032c0 0.118 0.036 0.224 0.109 0.318 0.072 0.093 0.167 0.154 0.282 0.182 0.259 0.065 0.512 0.15 0.758 0.257 0.245 0.106 0.481 0.231 0.707 0.375 0.225 0.144 0.437 0.306 0.636 0.485s0.382 0.373 0.55 0.582c0.167 0.208 0.316 0.429 0.448 0.663 0.131 0.233 0.242 0.475 0.334 0.726 0.091 0.252 0.162 0.509 0.212 0.773 0.050 0.262 0.078 0.528 0.084 0.795h-0.511c-0.101 0-0.202 0.010-0.302 0.030-0.099 0.019-0.196 0.048-0.289 0.088-0.095 0.038-0.184 0.087-0.268 0.143s-0.162 0.12-0.234 0.193c-0.072 0.071-0.136 0.15-0.193 0.234s-0.104 0.173-0.143 0.267c-0.038 0.095-0.068 0.191-0.088 0.291-0.020 0.1-0.029 0.2-0.029 0.302h-14.439v-1.42c-0.001-0.274 0.021-0.544 0.066-0.814 0.045-0.269 0.111-0.533 0.2-0.791 0.089-0.259 0.198-0.508 0.329-0.748 0.129-0.24 0.279-0.468 0.447-0.684s0.353-0.414 0.554-0.599c0.202-0.185 0.417-0.351 0.645-0.5 0.23-0.149 0.468-0.277 0.72-0.386 0.25-0.109 0.508-0.196 0.773-0.262zM2.578 30.946c-0.101 0-0.202-0.010-0.302-0.030-0.099-0.019-0.196-0.050-0.289-0.088-0.095-0.039-0.184-0.087-0.268-0.143s-0.162-0.12-0.234-0.193c-0.072-0.072-0.136-0.15-0.193-0.234s-0.104-0.173-0.143-0.268c-0.038-0.093-0.068-0.19-0.088-0.289-0.019-0.1-0.029-0.2-0.029-0.302v-2.063h15.471v2.063c0.002 0.456 0.119 0.882 0.35 1.275-0.261 0.179-0.55 0.27-0.866 0.272h-13.409zM27.331 30.946h-8.251c-0.101 0-0.202-0.010-0.302-0.030-0.099-0.019-0.196-0.050-0.291-0.088-0.093-0.039-0.182-0.087-0.267-0.143s-0.162-0.12-0.234-0.193c-0.072-0.072-0.136-0.15-0.193-0.234s-0.105-0.173-0.143-0.268c-0.039-0.093-0.069-0.19-0.088-0.289-0.020-0.1-0.030-0.2-0.030-0.302v-0.516h11.346v0.516c0 0.101-0.010 0.201-0.030 0.302-0.019 0.099-0.048 0.196-0.088 0.289-0.038 0.095-0.087 0.184-0.143 0.268s-0.12 0.162-0.192 0.234c-0.071 0.072-0.15 0.136-0.234 0.193s-0.173 0.104-0.267 0.143c-0.095 0.038-0.192 0.069-0.291 0.088-0.1 0.020-0.2 0.030-0.302 0.030zM29.91 14.96c0 0.069-0.013 0.134-0.039 0.197-0.027 0.063-0.064 0.119-0.113 0.168-0.047 0.048-0.104 0.086-0.167 0.111s-0.13 0.039-0.197 0.039h-0.516v-3.095h0.516c0.067 0 0.134 0.014 0.197 0.039s0.119 0.063 0.167 0.111c0.048 0.048 0.086 0.105 0.113 0.168 0.026 0.063 0.039 0.128 0.039 0.197v2.063z"></path>
<path fill="#160a58" style="fill: var(--color1, #160a58)" d="M25.784 22.179h-1.032v-1.032c0-0.069-0.012-0.134-0.039-0.197-0.026-0.063-0.063-0.119-0.112-0.168s-0.104-0.086-0.167-0.111c-0.063-0.026-0.13-0.039-0.198-0.039h-2.062c-0.069 0-0.134 0.014-0.198 0.039s-0.118 0.063-0.167 0.111-0.086 0.105-0.112 0.168c-0.027 0.063-0.039 0.128-0.039 0.197v1.032h-1.032c-0.069 0-0.134 0.012-0.197 0.039-0.063 0.026-0.119 0.063-0.168 0.112s-0.086 0.104-0.111 0.167c-0.026 0.064-0.039 0.13-0.039 0.198v2.062c0 0.069 0.014 0.135 0.039 0.198s0.063 0.118 0.111 0.167c0.048 0.048 0.105 0.085 0.168 0.111 0.063 0.027 0.128 0.039 0.197 0.039h1.032v1.032c0 0.069 0.012 0.134 0.039 0.197 0.026 0.064 0.063 0.119 0.112 0.168s0.104 0.086 0.167 0.111c0.064 0.027 0.13 0.040 0.198 0.040h2.062c0.069 0 0.135-0.013 0.198-0.040 0.063-0.026 0.118-0.063 0.167-0.111s0.086-0.104 0.112-0.168c0.027-0.063 0.039-0.128 0.039-0.197v-1.032h1.032c0.069 0 0.134-0.012 0.197-0.039 0.064-0.026 0.12-0.063 0.168-0.111s0.085-0.104 0.111-0.167c0.026-0.063 0.039-0.13 0.039-0.198v-2.062c0-0.069-0.013-0.134-0.039-0.198-0.026-0.063-0.063-0.118-0.111-0.167s-0.104-0.086-0.168-0.112c-0.063-0.027-0.128-0.039-0.197-0.039zM25.268 24.241h-1.032c-0.068 0-0.134 0.013-0.197 0.039-0.063 0.027-0.118 0.064-0.167 0.113s-0.085 0.104-0.112 0.167c-0.026 0.063-0.040 0.13-0.040 0.197v1.032h-1.030v-1.032c0-0.067-0.014-0.134-0.040-0.197s-0.064-0.118-0.112-0.167c-0.047-0.048-0.104-0.086-0.167-0.113-0.063-0.026-0.13-0.039-0.197-0.039h-1.031v-1.030h1.031c0.068 0 0.134-0.014 0.197-0.039s0.119-0.064 0.167-0.112c0.048-0.048 0.087-0.105 0.112-0.168s0.040-0.13 0.040-0.197v-1.032h1.030v1.032c0 0.067 0.014 0.134 0.040 0.197 0.027 0.063 0.064 0.119 0.112 0.168 0.048 0.047 0.104 0.086 0.167 0.112s0.13 0.039 0.197 0.039h1.032v1.030z"></path>
</symbol>
<symbol id="Hand" viewBox="0 0 39 32">
<path fill="#160a58" style="fill: var(--color1, #160a58)" d="M1.554 18.101l0.020 0.003c2.039 0.271 4.032 0.534 6.751 0.244 2.749-0.291 6.244-1.15 9.786-2.020 0.029-0.007 0.059-0.012 0.088-0.013 2.512-0.157 5.125-0.323 6.857-0.015 0.434 0.077 0.837 0.189 1.178 0.348 1.035 0.483 1.492 1.433 1.018 2.446-0.316 0.68-1.022 1.305-2.034 1.808-1.421 0.705-3.581 1.229-5.389 1.67-1.199 0.293-2.234 0.547-2.884 0.793-0.535 0.204-0.683 0.359-0.702 0.394 0.008-0.017 0.019-0.067 0.003-0.109-0.002-0.003-0.003-0.005-0.003-0.005 0.054 0.098 0.402 0.337 1.204 0.584 0.301 0.094 0.633 0.178 0.995 0.244 1.374 0.244 3.214 0.19 5.453-0.963 1.416-0.729 2.992-1.894 4.603-3.086 1.569-1.162 3.173-2.352 4.62-3.096 0.057-0.030 0.116-0.059 0.174-0.088 1.523-0.753 2.914-1.012 3.877-0.84 0.786 0.14 1.505 0.653 1.342 1.574-0.020 0.111-0.052 0.222-0.098 0.332-0.404 1.005-1.997 2.295-3.507 3.539-0.879 0.726-1.781 1.47-2.559 2.207-0.631 0.598-1.182 1.192-1.724 1.779-0.502 0.542-0.998 1.079-1.53 1.584-0.872 0.825-1.845 1.571-3.14 2.155-2.889 1.301-7.345 1.766-11.67 2.224-0.136 0.015-0.273-0.029-0.377-0.118-1.919-1.66-3.712-3.194-5.736-3.633-0.071-0.015-0.143-0.030-0.215-0.042-1.978-0.352-4.222 0.269-6.616 0.946-0.264 0.074-0.54-0.079-0.614-0.343s0.079-0.54 0.343-0.614c2.332-0.658 4.813-1.369 7.061-0.968 0.084 0.015 0.17 0.030 0.254 0.049 2.32 0.505 4.31 2.241 6.175 3.854l-0.379-0.12c4.394-0.465 8.657-0.921 11.365-2.141 1.167-0.525 2.049-1.199 2.864-1.97 0.505-0.478 0.98-0.992 1.485-1.539 0.54-0.582 1.113-1.202 1.769-1.825 0.808-0.766 1.739-1.532 2.611-2.253 1.641-1.354 2.934-2.439 3.217-3.143 0.022-0.052 0.034-0.098 0.040-0.135 0.020-0.114 0.017-0.322-0.535-0.419-0.675-0.12-1.842 0.050-3.263 0.753-0.052 0.025-0.106 0.052-0.158 0.079-1.36 0.7-2.894 1.835-4.485 3.012-1.589 1.177-3.236 2.397-4.737 3.17-2.448 1.259-4.51 1.338-6.084 1.059-0.407-0.074-0.779-0.17-1.114-0.273-0.721-0.224-1.503-0.549-1.783-1.061-0.020-0.035-0.037-0.076-0.054-0.116-0.094-0.249-0.069-0.51 0.066-0.742 0.209-0.364 0.665-0.618 1.21-0.825 0.722-0.274 1.832-0.544 3.002-0.83 1.85-0.451 3.882-0.95 5.182-1.596 0.909-0.451 1.391-0.943 1.576-1.337 0.195-0.423 0.098-0.827-0.539-1.125-0.237-0.109-0.547-0.2-0.933-0.269-1.586-0.281-4.052-0.131-6.62 0.029l0.088-0.013c-3.519 0.865-7.088 1.742-9.919 2.044-2.845 0.303-4.939 0.025-6.987-0.247l-0.020-0.003c-0.271-0.037-0.463-0.286-0.428-0.559 0.037-0.273 0.288-0.463 0.559-0.428z"></path>
<path fill="#160a58" style="fill: var(--color1, #160a58)" d="M18.665 14.67c0.049 0.253 0.285 0.424 0.539 0.394 0.256-0.030 0.444-0.254 0.433-0.51-0.256-5.261-0.483-11.020-3.857-13.158-2.249-1.426-5.763-1.162-9.481-0.448-1.901 0.364-3.907 0.859-5.897 1.349-0.183 0.045-0.325 0.192-0.362 0.377-0.039 0.185 0.034 0.375 0.183 0.49 5.012 3.786 10.249 7.769 13.332 8.066 0.372 0.037 0.719 0.022 1.042-0.040 1.968-0.377 2.667-2.354 2.362-3.949-0.106-0.545-0.328-1.077-0.675-1.527-1.503-1.948-5.2-2.079-8.453-2.234-0.271-0.013-0.5 0.195-0.513 0.466-0.012 0.269 0.197 0.5 0.466 0.512 3.507 0.167 6.569 0.357 7.724 1.855 0.244 0.315 0.409 0.7 0.488 1.113 0.246 1.283-0.342 2.564-1.582 2.801-0.224 0.042-0.478 0.056-0.764 0.029-2.727-0.263-7.667-3.97-12.835-7.874l-0.178 0.867c1.997-0.492 3.976-0.978 5.848-1.338 3.764-0.721 6.894-0.875 8.773 0.315 2.835 1.798 3.133 6.837 3.401 12.377l0.971-0.116c-0.050-0.266-0.308-0.439-0.574-0.389s-0.439 0.308-0.389 0.574z"></path>
<path fill="#160a58" style="fill: var(--color1, #160a58)" d="M19.672 14.668c-0.049 0.252-0.285 0.426-0.54 0.396-0.254-0.032-0.443-0.254-0.431-0.512 0.256-5.259 0.483-11.018 3.857-13.157 2.249-1.426 5.763-1.162 9.482-0.45 1.901 0.365 3.906 0.859 5.897 1.349 0.183 0.045 0.325 0.194 0.362 0.379 0.039 0.185-0.034 0.375-0.183 0.488-5.012 3.786-10.249 7.771-13.332 8.067-0.372 0.035-0.721 0.020-1.042-0.042-1.968-0.377-2.668-2.352-2.362-3.948 0.104-0.547 0.328-1.077 0.673-1.527 1.505-1.949 5.202-2.081 8.455-2.236 0.271-0.012 0.5 0.197 0.513 0.466 0.012 0.271-0.197 0.5-0.466 0.513-3.508 0.167-6.569 0.357-7.726 1.855-0.242 0.313-0.407 0.7-0.487 1.113-0.246 1.283 0.342 2.562 1.582 2.801 0.224 0.042 0.478 0.056 0.764 0.027 2.727-0.263 7.667-3.968 12.835-7.872l0.178 0.867c-1.997-0.492-3.976-0.98-5.849-1.338-3.766-0.722-6.894-0.877-8.773 0.315-2.835 1.796-3.133 6.837-3.401 12.377l-0.971-0.116c0.051-0.266 0.308-0.441 0.574-0.389 0.266 0.051 0.439 0.306 0.389 0.572z"></path>
</symbol>
<symbol id="Atom" viewBox="0 0 28 32">
<path fill="#160a58" style="fill: var(--color1, #160a58)" d="M13.9 31.925c-1.571 0-3.019-1.703-4.074-4.794-1.019-2.985-1.581-6.949-1.581-11.16s0.562-8.175 1.581-11.161c1.055-3.090 2.503-4.794 4.074-4.794 1.573 0 3.017 1.704 4.074 4.794 1.019 2.987 1.581 6.95 1.581 11.161s-0.562 8.175-1.581 11.16c-1.056 3.091-2.503 4.794-4.074 4.794zM13.9 0.648c-1.262 0-2.53 1.591-3.477 4.366-0.997 2.922-1.547 6.813-1.547 10.957 0 4.145 0.55 8.035 1.547 10.957 0.946 2.775 2.215 4.367 3.477 4.367s2.53-1.591 3.477-4.367c0.997-2.922 1.546-6.813 1.546-10.957 0-4.142-0.548-8.035-1.546-10.957-0.948-2.774-2.215-4.366-3.477-4.366z"></path>
<path fill="#160a58" style="fill: var(--color1, #160a58)" d="M25.029 27.003c-1.054 0-2.345-0.246-3.839-0.741-3.153-1.043-6.871-3.067-10.472-5.699s-6.655-5.562-8.604-8.25c-2.017-2.781-2.618-5.013-1.688-6.284 0.929-1.271 3.238-1.376 6.5-0.296 3.155 1.044 6.871 3.069 10.472 5.7s6.656 5.562 8.606 8.249c2.019 2.782 2.62 5.013 1.691 6.285-0.508 0.69-1.419 1.035-2.667 1.035zM3.076 5.621c-1.026 0-1.766 0.261-2.145 0.781-0.743 1.016-0.126 3.036 1.691 5.542 1.913 2.636 4.921 5.516 8.469 8.11 3.547 2.593 7.204 4.586 10.296 5.61 2.938 0.973 5.050 0.946 5.793-0.069 0.745-1.015 0.126-3.036-1.691-5.542-1.913-2.636-4.921-5.516-8.469-8.11-3.547-2.595-7.203-4.587-10.296-5.61-1.431-0.476-2.669-0.712-3.647-0.712h-0.001z"></path>
<path fill="#160a58" style="fill: var(--color1, #160a58)" d="M3.309 27.262c-1.086 0-1.898-0.301-2.383-0.905-0.988-1.227-0.466-3.505 1.468-6.413 1.87-2.81 4.847-5.925 8.383-8.769 3.538-2.845 7.218-5.086 10.362-6.308 3.255-1.266 5.591-1.288 6.579-0.063 0.987 1.224 0.465 3.504-1.469 6.411-1.868 2.81-4.845 5.926-8.383 8.769-3.536 2.844-7.216 5.087-10.362 6.309-1.655 0.645-3.071 0.968-4.195 0.968zM11.173 11.667c-3.489 2.805-6.419 5.87-8.254 8.628-1.743 2.621-2.29 4.687-1.503 5.667 0.789 0.981 2.925 0.89 5.859-0.251 3.086-1.199 6.707-3.407 10.195-6.215s6.419-5.87 8.254-8.628c1.743-2.621 2.29-4.687 1.501-5.668-0.789-0.98-2.923-0.887-5.858 0.253-3.087 1.199-6.707 3.407-10.195 6.215z"></path>
<path fill="#160a58" style="fill: var(--color1, #160a58)" d="M13.795 18.027c-0.153 0-0.306-0.016-0.457-0.046s-0.297-0.074-0.44-0.133c-0.142-0.059-0.277-0.132-0.405-0.216-0.128-0.086-0.246-0.183-0.355-0.292s-0.207-0.227-0.292-0.355c-0.086-0.128-0.157-0.263-0.216-0.406-0.059-0.141-0.103-0.288-0.133-0.44-0.031-0.151-0.046-0.302-0.046-0.457 0-0.153 0.015-0.305 0.046-0.457 0.030-0.151 0.074-0.297 0.133-0.44 0.059-0.141 0.13-0.277 0.216-0.405 0.085-0.128 0.183-0.246 0.292-0.355s0.227-0.206 0.355-0.292c0.128-0.086 0.262-0.157 0.405-0.216s0.289-0.104 0.44-0.133c0.151-0.031 0.304-0.046 0.457-0.046 0.155 0 0.306 0.015 0.457 0.046 0.152 0.030 0.298 0.074 0.44 0.133 0.142 0.059 0.277 0.13 0.406 0.216 0.128 0.086 0.246 0.183 0.355 0.292s0.206 0.227 0.292 0.355c0.085 0.128 0.157 0.263 0.216 0.405 0.058 0.142 0.103 0.289 0.133 0.44 0.030 0.152 0.044 0.304 0.044 0.457 0 0.155-0.015 0.306-0.046 0.457-0.030 0.152-0.074 0.297-0.133 0.44s-0.132 0.277-0.216 0.405c-0.086 0.128-0.183 0.246-0.292 0.355s-0.227 0.206-0.355 0.292c-0.128 0.086-0.262 0.157-0.405 0.216s-0.289 0.104-0.44 0.134c-0.151 0.030-0.302 0.044-0.457 0.046zM13.795 14.097c-0.103 0-0.207 0.011-0.309 0.031s-0.202 0.051-0.297 0.090c-0.097 0.040-0.188 0.089-0.274 0.146-0.087 0.058-0.167 0.124-0.241 0.198s-0.14 0.153-0.198 0.241c-0.058 0.086-0.106 0.177-0.147 0.274-0.040 0.095-0.070 0.195-0.090 0.297s-0.031 0.206-0.031 0.309c0 0.105 0.011 0.208 0.031 0.31s0.050 0.2 0.090 0.297c0.040 0.097 0.089 0.188 0.147 0.274s0.124 0.167 0.198 0.241c0.074 0.074 0.153 0.138 0.241 0.196 0.086 0.059 0.177 0.108 0.274 0.148 0.095 0.039 0.195 0.070 0.297 0.090s0.206 0.030 0.309 0.030c0.105 0 0.207-0.009 0.309-0.030s0.202-0.051 0.298-0.090c0.095-0.040 0.187-0.089 0.274-0.148 0.086-0.058 0.167-0.122 0.241-0.196 0.073-0.074 0.138-0.155 0.196-0.241s0.108-0.177 0.146-0.274c0.040-0.097 0.070-0.195 0.090-0.297 0.021-0.102 0.031-0.206 0.031-0.31 0-0.103-0.011-0.207-0.031-0.309s-0.050-0.2-0.090-0.297c-0.040-0.095-0.089-0.187-0.146-0.274-0.058-0.086-0.124-0.167-0.198-0.241-0.074-0.073-0.153-0.138-0.241-0.196-0.086-0.058-0.177-0.107-0.273-0.146-0.097-0.040-0.196-0.070-0.298-0.091-0.102-0.020-0.204-0.030-0.309-0.031z"></path>
</symbol>
<symbol id="Paw" viewBox="0 0 36 32">
<path fill="#160a58" style="fill: var(--color1, #160a58)" d="M10.090 31.919c-0.238 0-0.476-0.014-0.705-0.052-0.605-0.095-1.162-0.309-1.662-0.638-0.471-0.314-0.876-0.719-1.2-1.209-0.743-1.119-1-2.581-0.71-4.005 0.152-0.748 0.443-1.462 0.871-2.119 0.457-0.7 1.057-1.319 1.786-1.838 1.062-0.757 1.724-1.91 1.814-3.167-0.057-1.105 0.176-2.124 0.69-3.014 0.471-0.819 1.167-1.514 2.062-2.062 1.257-0.762 2.862-1.195 4.529-1.21 1.672-0.019 3.286 0.381 4.557 1.129 0.914 0.533 1.624 1.229 2.114 2.062 0.529 0.905 0.781 1.943 0.743 3.090 0.157 1.643 1.176 2.576 2.257 3.557 0.738 0.676 1.5 1.371 2.014 2.324 0.581 1.086 0.738 2.338 0.471 3.824l-0.005 0.009c-0.262 1.352-0.976 2.343-2.062 2.862-1.51 0.714-3.657 0.467-5.752-0.657-1.509-0.805-2.519-1.295-4.138-1.3h-0.005c-1.648 0-3.062 0.681-4.114 1.276-0.767 0.471-1.524 0.795-2.257 0.976-0.443 0.11-0.876 0.162-1.3 0.162zM17.671 13.519c-1.486 0-2.976 0.362-4.157 1.081-1.124 0.686-2.433 1.981-2.309 4.271v0.057c-0.105 1.538-0.905 2.952-2.2 3.876-2.614 1.867-2.929 4.876-1.714 6.705 0.929 1.409 2.967 2.271 5.881 0.486l0.014-0.009c0.743-0.419 1.386-0.719 2.029-0.943 0.867-0.305 1.724-0.457 2.548-0.457h0.009c1.795 0.005 2.924 0.533 4.567 1.405 1.814 0.976 3.7 1.224 4.924 0.638 0.824-0.39 1.348-1.128 1.557-2.2 0.505-2.833-0.748-3.981-2.205-5.305-0.567-0.519-1.157-1.057-1.624-1.71-0.543-0.757-0.848-1.567-0.929-2.476l-0.005-0.029v-0.029c0.095-2.381-1.252-3.686-2.4-4.357-1.138-0.671-2.562-1.005-3.986-1.005zM12.79 12.895c-0.067 0-0.133-0.005-0.2-0.009h-0.024c-0.776-0.081-1.486-0.338-2.1-0.767-0.571-0.395-1.052-0.924-1.438-1.581-0.695-1.191-1.033-2.729-0.948-4.343 0.081-1.61 0.576-3.105 1.395-4.219 0.448-0.61 0.981-1.090 1.586-1.424 0.657-0.362 1.391-0.543 2.171-0.543h0.024c0.676 0.033 1.324 0.248 1.919 0.629 0.562 0.367 1.057 0.867 1.471 1.49 0.829 1.252 1.233 2.876 1.148 4.571-0.090 1.695-0.662 3.267-1.614 4.429-0.476 0.581-1.019 1.029-1.619 1.329-0.571 0.29-1.167 0.438-1.771 0.438zM12.648 11.971c1.029 0.048 2.029-0.457 2.824-1.424 0.829-1.010 1.329-2.395 1.405-3.895 0.081-1.5-0.276-2.929-0.995-4.019-0.69-1.043-1.633-1.648-2.657-1.705-2.714 0.005-4.090 2.757-4.224 5.314-0.133 2.562 0.952 5.443 3.648 5.729zM23.71 12.9c-0.729 0-1.414-0.167-2.043-0.486-0.614-0.319-1.162-0.781-1.629-1.381-0.848-1.090-1.381-2.571-1.51-4.181-0.129-1.605 0.167-3.157 0.829-4.367 0.367-0.662 0.833-1.21 1.39-1.619 0.605-0.448 1.305-0.724 2.081-0.824l0.024-0.005c0.676-0.052 1.343 0.071 1.981 0.376 0.61 0.286 1.162 0.719 1.652 1.281 0.986 1.138 1.605 2.695 1.738 4.386s-0.229 3.329-1.024 4.605c-0.39 0.633-0.871 1.148-1.429 1.524-0.581 0.4-1.224 0.633-1.895 0.686h-0.024c-0.048 0.005-0.095 0.005-0.143 0.005zM22.933 0.952c-2.686 0.362-3.695 3.271-3.49 5.829 0.205 2.552 1.657 5.267 4.371 5.2 1.019-0.086 1.948-0.719 2.609-1.781 0.69-1.114 1.005-2.548 0.886-4.048-0.119-1.495-0.657-2.867-1.514-3.852-0.824-0.948-1.838-1.424-2.862-1.348zM5.138 20.752c-0.481 0-0.952-0.086-1.405-0.248-0.605-0.224-1.171-0.59-1.671-1.090-0.91-0.91-1.581-2.219-1.886-3.69s-0.214-2.938 0.257-4.133c0.262-0.662 0.633-1.219 1.1-1.667 0.51-0.481 1.129-0.824 1.838-1.010l0.019-0.005c0.624-0.129 1.257-0.090 1.89 0.119 0.595 0.191 1.162 0.529 1.681 0.995 1.043 0.933 1.795 2.3 2.119 3.852 0.319 1.548 0.176 3.105-0.41 4.376-0.29 0.633-0.676 1.167-1.148 1.586-0.495 0.438-1.062 0.729-1.681 0.857l-0.024 0.005c-0.229 0.033-0.457 0.052-0.681 0.052zM3.59 9.809c-1.348 0.357-1.995 1.348-2.3 2.119-0.41 1.029-0.481 2.314-0.214 3.61 0.271 1.3 0.852 2.443 1.633 3.224 0.586 0.586 1.576 1.238 2.957 1.029 0.919-0.195 1.69-0.876 2.171-1.924 0.505-1.095 0.624-2.448 0.343-3.805s-0.933-2.548-1.833-3.357c-0.857-0.767-1.833-1.086-2.757-0.895zM29.871 21.481c-0.3 0-0.595-0.038-0.881-0.11l-0.024-0.009c-0.7-0.214-1.3-0.586-1.786-1.090-0.448-0.467-0.791-1.043-1.024-1.714-0.414-1.214-0.438-2.686-0.067-4.143 0.376-1.457 1.105-2.733 2.057-3.6 0.524-0.476 1.1-0.814 1.719-1.010 0.671-0.21 1.376-0.243 2.090-0.095l0.024 0.005c0.614 0.157 1.167 0.472 1.643 0.933 0.452 0.438 0.809 0.99 1.071 1.633 0.524 1.3 0.6 2.862 0.205 4.395s-1.21 2.862-2.295 3.748c-0.543 0.443-1.124 0.752-1.724 0.919-0.338 0.090-0.676 0.138-1.009 0.138zM29.229 20.481c0.91 0.233 1.905-0.043 2.795-0.767 0.938-0.762 1.643-1.924 1.986-3.267 0.348-1.343 0.286-2.7-0.167-3.819-0.429-1.067-1.167-1.786-2.081-2.024-1.367-0.271-2.386 0.333-2.995 0.89-0.824 0.748-1.452 1.862-1.786 3.148-0.329 1.286-0.309 2.567 0.048 3.614 0.267 0.786 0.867 1.805 2.2 2.224z"></path>
</symbol>
</defs>
</svg>
